<svg width="30" height="34" viewBox="0 0 30 34" fill="none" xmlns="http://www.w3.org/2000/svg">
<path d="M19.5 18.425H9C8.385 18.425 7.875 17.915 7.875 17.3C7.875 16.685 8.385 16.175 9 16.175H19.5C20.115 16.175 20.625 16.685 20.625 17.3C20.625 17.915 20.115 18.425 19.5 18.425ZM15.57 24.425H9C8.385 24.425 7.875 23.915 7.875 23.3C7.875 22.685 8.385 22.175 9 22.175H15.57C16.185 22.175 16.695 22.685 16.695 23.3C16.695 23.915 16.185 24.425 15.57 24.425ZM18 9.125H12C10.56 9.125 7.875 9.125 7.875 5C7.875 0.875 10.56 0.875 12 0.875H18C19.44 0.875 22.125 0.875 22.125 5C22.125 6.44 22.125 9.125 18 9.125ZM12 3.125C10.515 3.125 10.125 3.125 10.125 5C10.125 6.875 10.515 6.875 12 6.875H18C19.875 6.875 19.875 6.485 19.875 5C19.875 3.125 19.485 3.125 18 3.125H12Z" fill="black"/>
<path d="M19.5 33.1251H10.5C2.07 33.1251 0.375 29.2551 0.375 23.0001V14.0001C0.375 7.16014 2.85 4.23514 8.94 3.92014C9.54 3.89014 10.095 4.35514 10.125 4.98514C10.155 5.61514 9.675 6.12514 9.06 6.15514C4.8 6.39514 2.625 7.67014 2.625 14.0001V23.0001C2.625 28.5501 3.72 30.8751 10.5 30.8751H19.5C26.28 30.8751 27.375 28.5501 27.375 23.0001V14.0001C27.375 7.67014 25.2 6.39514 20.94 6.15514C20.6425 6.13694 20.364 6.00248 20.1648 5.78078C19.9655 5.55908 19.8615 5.26792 19.875 4.97014C19.905 4.35514 20.445 3.87514 21.06 3.90514C27.15 4.23514 29.625 7.16014 29.625 13.9851V22.9851C29.625 29.2551 27.93 33.1251 19.5 33.1251Z" fill="black"/>
</svg>
