<svg width="36" height="43" viewBox="0 0 36 43" fill="none" xmlns="http://www.w3.org/2000/svg">
<path d="M30.0269 14.0186H5.20508V40.624H30.0269V14.0186Z" stroke="black" stroke-width="3" stroke-miterlimit="10" stroke-linejoin="round"/>
<path d="M33.5756 14.0186H1.65649" stroke="black" stroke-width="3" stroke-miterlimit="10" stroke-linecap="round" stroke-linejoin="round"/>
<path d="M17.616 1.60791C19.2458 1.60791 20.8597 1.92893 22.3655 2.55264C23.8712 3.17634 25.2394 4.09053 26.3919 5.24299C27.5443 6.39545 28.4585 7.76362 29.0822 9.26938C29.7059 10.7751 30.0269 12.389 30.0269 14.0188H5.20508C5.20508 10.7273 6.51265 7.57049 8.84015 5.24299C11.1677 2.91549 14.3244 1.60791 17.616 1.60791Z" stroke="black" stroke-width="3" stroke-miterlimit="10"/>
<path d="M22.9298 14.0186H15.8511V21.1158C15.8158 21.6022 15.8812 22.0906 16.0431 22.5506C16.205 23.0105 16.4599 23.4322 16.792 23.7893C17.1241 24.1463 17.5263 24.4311 17.9733 24.6258C18.4204 24.8206 18.9028 24.9211 19.3904 24.9211C19.8781 24.9211 20.3605 24.8206 20.8075 24.6258C21.2546 24.4311 21.6567 24.1463 21.9888 23.7893C22.3209 23.4322 22.5759 23.0105 22.7378 22.5506C22.8997 22.0906 22.965 21.6022 22.9298 21.1158V26.4295C22.9298 27.3706 23.3036 28.2732 23.9691 28.9387C24.6346 29.6042 25.5373 29.9781 26.4784 29.9781C27.4196 29.9781 28.3222 29.6042 28.9877 28.9387C29.6532 28.2732 30.027 27.3706 30.027 26.4295V14.0186H22.9298Z" stroke="black" stroke-width="3" stroke-miterlimit="10"/>
<path d="M22.9297 19.3511V22.8811" stroke="black" stroke-width="3" stroke-miterlimit="10"/>
</svg>
