<svg width="36" height="43" viewBox="0 0 36 43" fill="none" xmlns="http://www.w3.org/2000/svg">
<path d="M11.4516 14.5973L11.4479 14.5992L11.4423 14.6029L11.4516 14.5973ZM29.9454 14.2499C29.8161 14.1252 29.6727 14.016 29.5181 13.9247C29.2991 13.7958 29.056 13.7132 28.8039 13.682C28.5518 13.6507 28.2959 13.6715 28.0521 13.7431C27.8083 13.8147 27.5818 13.9355 27.3866 14.098C27.1913 14.2606 27.0315 14.4615 26.917 14.6883C26.2771 15.9497 25.3944 17.0723 24.3196 17.9917C24.4844 17.0656 24.5677 16.1269 24.5685 15.1863C24.5721 12.3253 23.8174 9.51452 22.3815 7.04005C20.9455 4.56559 18.8794 2.51583 16.3937 1.09948C16.1198 0.943839 15.8108 0.860411 15.4957 0.85704C15.1807 0.853669 14.87 0.930464 14.5928 1.08021C14.3156 1.22995 14.081 1.44772 13.9111 1.71305C13.7413 1.97838 13.6416 2.28255 13.6217 2.59697C13.5176 4.35846 13.0571 6.08051 12.268 7.65878C11.4788 9.23706 10.3775 10.6387 9.03073 11.7788L8.60341 12.1263C7.19438 13.0743 5.94723 14.243 4.90986 15.5876C3.29769 17.6185 2.18092 19.9971 1.64812 22.5348C1.11531 25.0725 1.18114 27.6994 1.84037 30.2072C2.4996 32.715 3.7341 35.0348 5.44596 36.9824C7.15781 38.93 9.29994 40.452 11.7024 41.4276C11.9845 41.5424 12.2905 41.5861 12.5934 41.5549C12.8963 41.5236 13.1869 41.4184 13.4396 41.2485C13.6924 41.0785 13.8994 40.8491 14.0426 40.5803C14.1858 40.3115 14.2607 40.0117 14.2608 39.7071C14.2592 39.5103 14.2279 39.3149 14.1679 39.1275C13.7522 37.565 13.6325 35.9386 13.8149 34.3322C15.5734 37.6478 18.3957 40.2757 21.8281 41.7936C22.2469 41.9808 22.7202 42.0059 23.1565 41.8642C25.8681 40.9888 28.3109 39.4347 30.2527 37.3494C32.1945 35.2642 33.5709 32.7171 34.2512 29.9501C34.9315 27.1831 34.8929 24.2881 34.1393 21.5402C33.3857 18.7923 31.942 16.2827 29.9454 14.2499ZM22.6902 38.0889C21.0706 37.2682 19.6419 36.1159 18.4969 34.7069C17.3519 33.2978 16.5163 31.6635 16.0444 29.9103C15.9001 29.3199 15.7885 28.722 15.71 28.1193C15.6571 27.7355 15.4856 27.3778 15.2194 27.0963C14.9532 26.8148 14.6057 26.6236 14.2255 26.5493C14.1086 26.5266 13.9897 26.5154 13.8706 26.5159C13.5442 26.5156 13.2234 26.6012 12.9406 26.7643C12.6578 26.9274 12.423 27.1621 12.2598 27.4448C10.7186 30.104 9.94366 33.138 10.021 36.2105C8.66501 35.1565 7.53171 33.8439 6.6868 32.3486C5.84189 30.8534 5.30218 29.2053 5.09894 27.4999C4.89571 25.7945 5.03299 24.0658 5.50285 22.4138C5.9727 20.7619 6.76577 19.2197 7.83608 17.8765C8.64878 16.8209 9.62916 15.9058 10.7382 15.1677C10.7867 15.1365 10.8332 15.1024 10.8775 15.0655C10.8775 15.0655 11.4275 14.6103 11.446 14.601C14.0939 12.3623 15.9774 9.35324 16.834 5.99325C18.8581 7.86486 20.2076 10.3524 20.6729 13.0696C21.1382 15.7869 20.6933 18.5817 19.4072 21.0201C19.237 21.3456 19.1671 21.7142 19.2063 22.0794C19.2455 22.4446 19.3921 22.7899 19.6275 23.0719C19.8629 23.3538 20.1766 23.5596 20.5289 23.6633C20.8812 23.7671 21.2564 23.7641 21.607 23.6547C24.4529 22.7622 26.957 21.0193 28.7823 18.6606C29.8798 20.2811 30.5974 22.1285 30.8815 24.0649C31.1657 26.0014 31.0091 27.977 30.4235 29.8445C29.8379 31.712 28.8384 33.4233 27.4994 34.8508C26.1604 36.2783 24.5165 37.3851 22.6902 38.0889Z" fill="black" stroke="#FFB801" stroke-linejoin="round"/>
</svg>
