<svg width="39" height="39" viewBox="0 0 39 39" fill="none" xmlns="http://www.w3.org/2000/svg">
<path d="M34.0635 34.3635V34.6635H34.3635H36.2214C36.6346 34.6635 37.0309 34.8277 37.3231 35.1198C37.6152 35.412 37.7794 35.8083 37.7794 36.2214C37.7794 36.6346 37.6152 37.0309 37.3231 37.3231C37.0309 37.6152 36.6346 37.7794 36.2214 37.7794H2.77882C2.36564 37.7794 1.96937 37.6152 1.6772 37.3231C1.38504 37.0309 1.2209 36.6346 1.2209 36.2214C1.2209 35.8083 1.38504 35.412 1.6772 35.1198C1.96937 34.8277 2.36563 34.6635 2.77882 34.6635H4.63675H4.93675V34.3635V2.77882C4.93675 2.36564 5.10088 1.96937 5.39305 1.6772C5.68522 1.38504 6.08148 1.2209 6.49467 1.2209H32.5056C32.9188 1.2209 33.315 1.38504 33.6072 1.6772C33.8994 1.96937 34.0635 2.36563 34.0635 2.77882V34.3635ZM21.3581 34.6635H21.6581V34.3635V26.9318V26.6318H21.3581H17.6422H17.3422V26.9318V34.3635V34.6635H17.6422H21.3581ZM30.6477 34.6635H30.9477V34.3635V4.63675V4.33675H30.6477H8.35259H8.05259V4.63675V34.3635V34.6635H8.35259H13.9264H14.2264V34.3635V25.0739C14.2264 24.6607 14.3905 24.2645 14.6827 23.9723C14.9748 23.6801 15.3711 23.516 15.7843 23.516H23.216C23.6292 23.516 24.0254 23.6801 24.3176 23.9723C24.6098 24.2645 24.7739 24.6607 24.7739 25.0739V34.3635V34.6635H25.0739H30.6477ZM25.0739 11.7684H23.216C22.8028 11.7684 22.4065 11.6043 22.1144 11.3121C21.8222 11.02 21.6581 10.6237 21.6581 10.2105C21.6581 9.79733 21.8222 9.40106 22.1144 9.1089C22.4065 8.81673 22.8028 8.65259 23.216 8.65259H25.0739C25.4871 8.65259 25.8834 8.81673 26.1755 9.1089C26.4677 9.40107 26.6318 9.79733 26.6318 10.2105C26.6318 10.6237 26.4677 11.02 26.1755 11.3121C25.8834 11.6043 25.4871 11.7684 25.0739 11.7684ZM25.0739 19.2001H23.216C22.8028 19.2001 22.4065 19.036 22.1144 18.7438C21.8222 18.4517 21.6581 18.0554 21.6581 17.6422C21.6581 17.229 21.8222 16.8328 22.1144 16.5406C22.4065 16.2484 22.8028 16.0843 23.216 16.0843H25.0739C25.4871 16.0843 25.8834 16.2484 26.1755 16.5406C26.4677 16.8328 26.6318 17.229 26.6318 17.6422C26.6318 18.0554 26.4677 18.4517 26.1755 18.7438C25.8834 19.036 25.4871 19.2001 25.0739 19.2001ZM15.7843 11.7684H13.9264C13.5132 11.7684 13.1169 11.6043 12.8247 11.3121C12.5326 11.02 12.3684 10.6237 12.3684 10.2105C12.3684 9.79733 12.5326 9.40106 12.8247 9.1089C13.1169 8.81673 13.5132 8.65259 13.9264 8.65259H15.7843C16.1975 8.65259 16.5937 8.81673 16.8859 9.1089C17.1781 9.40106 17.3422 9.79733 17.3422 10.2105C17.3422 10.6237 17.1781 11.02 16.8859 11.3121C16.5937 11.6043 16.1975 11.7684 15.7843 11.7684ZM15.7843 19.2001H13.9264C13.5132 19.2001 13.1169 19.036 12.8247 18.7438C12.5326 18.4517 12.3684 18.0554 12.3684 17.6422C12.3684 17.229 12.5326 16.8328 12.8247 16.5406C13.1169 16.2484 13.5132 16.0843 13.9264 16.0843H15.7843C16.1975 16.0843 16.5937 16.2484 16.8859 16.5406C17.1781 16.8328 17.3422 17.229 17.3422 17.6422C17.3422 18.0554 17.1781 18.4517 16.8859 18.7438C16.5937 19.036 16.1975 19.2001 15.7843 19.2001Z" fill="black" stroke="#FFB801" stroke-width="0.6"/>
</svg>
