<svg width="41" height="41" viewBox="0 0 41 41" fill="none" xmlns="http://www.w3.org/2000/svg">
<path d="M31.1116 15.8752H21.3575C20.5958 15.8752 19.9641 15.2435 19.9641 14.4817C19.9641 13.72 20.5958 13.0883 21.3575 13.0883H31.1116C31.4812 13.0883 31.8356 13.2351 32.0969 13.4964C32.3582 13.7577 32.5051 14.1122 32.5051 14.4817C32.5051 14.8513 32.3582 15.2057 32.0969 15.467C31.8356 15.7283 31.4812 15.8752 31.1116 15.8752ZM11.6034 17.2853C11.2504 17.2853 10.8974 17.1553 10.6187 16.8766L9.22527 15.4831C8.96613 15.2209 8.8208 14.8671 8.8208 14.4984C8.8208 14.1298 8.96613 13.776 9.22527 13.5137C9.76407 12.9749 10.6559 12.9749 11.1947 13.5137L11.6034 13.9225L14.799 10.7269C15.3378 10.1881 16.2296 10.1881 16.7684 10.7269C17.3072 11.2657 17.3072 12.1575 16.7684 12.6963L12.5881 16.8766C12.327 17.138 11.9729 17.285 11.6034 17.2853ZM31.1116 28.8806H21.3575C20.5958 28.8806 19.9641 28.2489 19.9641 27.4872C19.9641 26.7254 20.5958 26.0937 21.3575 26.0937H31.1116C31.4812 26.0937 31.8356 26.2405 32.0969 26.5019C32.3582 26.7632 32.5051 27.1176 32.5051 27.4872C32.5051 27.8567 32.3582 28.2112 32.0969 28.4725C31.8356 28.7338 31.4812 28.8806 31.1116 28.8806ZM11.6034 30.2908C11.2504 30.2908 10.8974 30.1607 10.6187 29.882L9.22527 28.4886C8.96613 28.2264 8.8208 27.8726 8.8208 27.5039C8.8208 27.1352 8.96613 26.7814 9.22527 26.5192C9.76407 25.9804 10.6559 25.9804 11.1947 26.5192L11.6034 26.9279L14.799 23.7323C15.3378 23.1935 16.2296 23.1935 16.7684 23.7323C17.3072 24.2711 17.3072 25.1629 16.7684 25.7017L12.5881 29.882C12.327 30.1434 11.9729 30.2905 11.6034 30.2908Z" fill="black"/>
<path d="M26.2437 40.2676H15.0962C5.00765 40.2676 0.697266 35.9572 0.697266 25.8687V14.7212C0.697266 4.63265 5.00765 0.322266 15.0962 0.322266H26.2437C36.3322 0.322266 40.6426 4.63265 40.6426 14.7212V25.8687C40.6426 35.9572 36.3322 40.2676 26.2437 40.2676ZM15.0962 3.10915C6.53115 3.10915 3.48415 6.15615 3.48415 14.7212V25.8687C3.48415 34.4337 6.53115 37.4807 15.0962 37.4807H26.2437C34.8087 37.4807 37.8557 34.4337 37.8557 25.8687V14.7212C37.8557 6.15615 34.8087 3.10915 26.2437 3.10915H15.0962Z" fill="black"/>
</svg>
