<svg width="43" height="43" viewBox="0 0 43 43" fill="none" xmlns="http://www.w3.org/2000/svg">
<path d="M16.186 10.8545V1.99219" stroke="black" stroke-width="3" stroke-miterlimit="10"/>
<path d="M26.8135 10.8545V1.99219" stroke="black" stroke-width="3" stroke-miterlimit="10"/>
<path d="M14.4024 17.9517H7.30518" stroke="black" stroke-width="3" stroke-miterlimit="10"/>
<path d="M35.6944 17.9517H28.5972" stroke="black" stroke-width="3" stroke-miterlimit="10"/>
<path d="M37.4593 17.9518C37.4544 13.7205 35.7714 9.664 32.7795 6.67207C29.7875 3.68013 25.731 1.9971 21.4998 1.99219C17.2685 1.9971 13.212 3.68013 10.2201 6.67207C7.22815 9.664 5.54512 13.7205 5.54021 17.9518C5.02334 17.9493 4.51224 18.0605 4.04303 18.2773C3.57382 18.4941 3.15794 18.8113 2.82478 19.2064C2.49163 19.6016 2.24932 20.0651 2.11497 20.5643C1.98063 21.0634 1.95753 21.5859 2.04731 22.0949C2.22483 22.9434 2.69344 23.7032 3.37202 24.2427C4.05061 24.7822 4.89646 25.0674 5.76316 25.049H37.3479C38.2146 25.0674 39.0604 24.7822 39.739 24.2427C40.4176 23.7032 40.8862 22.9434 41.0637 22.0949C41.1555 21.5765 41.1302 21.044 40.9895 20.5367C40.8489 20.0293 40.5966 19.5598 40.251 19.1625C39.9054 18.7653 39.4754 18.4504 38.9923 18.2409C38.5093 18.0314 37.9855 17.9326 37.4593 17.9518Z" stroke="black" stroke-width="3" stroke-miterlimit="10"/>
<path d="M7.30518 25.049H35.6942V26.9069C35.6697 30.6554 34.1634 34.242 31.5041 36.8839C28.8447 39.5259 25.2483 41.0086 21.4997 41.0085C17.7351 41.0085 14.1247 39.513 11.4627 36.851C8.80067 34.189 7.30518 30.5786 7.30518 26.814V24.9561V25.049Z" stroke="black" stroke-width="3" stroke-miterlimit="10"/>
</svg>
