<svg width="43" height="43" viewBox="0 0 43 43" fill="none" xmlns="http://www.w3.org/2000/svg">
<path d="M25.9414 11.7519L11.7529 25.9404L17.0736 31.2611L31.2621 17.0726L25.9414 11.7519Z" stroke="black" stroke-width="3" stroke-miterlimit="10"/>
<path d="M33.9107 16.1867C37.8305 16.1867 41.008 13.0092 41.008 9.08946C41.008 5.16974 37.8305 1.99219 33.9107 1.99219C29.991 1.99219 26.8135 5.16974 26.8135 9.08946C26.8135 13.0092 29.991 16.1867 33.9107 16.1867Z" stroke="black" stroke-width="3" stroke-miterlimit="10"/>
<path d="M9.08897 41.0085C13.0087 41.0085 16.1862 37.8309 16.1862 33.9112C16.1862 29.9915 13.0087 26.814 9.08897 26.814C5.16925 26.814 1.9917 29.9915 1.9917 33.9112C1.9917 37.8309 5.16925 41.0085 9.08897 41.0085Z" stroke="black" stroke-width="3" stroke-miterlimit="10"/>
<path d="M21.4999 16.1867L16.1862 21.5004L10.854 16.1867H7.30536C5.89438 16.1818 4.54288 15.6178 3.5469 14.6184C2.55093 13.6189 1.99169 12.2655 1.9917 10.8545V7.30585L2.73487 8.04902C3.39275 8.74794 4.28519 9.17983 5.2415 9.26209C6.19781 9.34436 7.15089 9.07122 7.91847 8.49492C8.33195 8.16643 8.67065 7.75358 8.91202 7.2839C9.15339 6.81421 9.29187 6.29847 9.31824 5.77106C9.34461 5.24364 9.25827 4.71666 9.06495 4.22524C8.87164 3.73382 8.57581 3.28924 8.19716 2.92115L7.30536 1.99219H10.854C12.265 1.99218 13.6184 2.55142 14.6179 3.54739C15.6174 4.54336 16.1813 5.89487 16.1862 7.30585V10.8545L21.4999 16.1867Z" stroke="black" stroke-width="3" stroke-miterlimit="10" stroke-linejoin="round"/>
<path d="M35.6945 26.8137C37.1055 26.8186 38.457 27.3825 39.453 28.382C40.449 29.3814 41.0082 30.7349 41.0082 32.1459V35.6945L40.265 34.9514C39.6071 34.2524 38.7147 33.8206 37.7584 33.7383C36.8021 33.656 35.849 33.9292 35.0814 34.5055C34.6679 34.834 34.3292 35.2468 34.0879 35.7165C33.8465 36.1862 33.708 36.7019 33.6817 37.2293C33.6553 37.7567 33.7416 38.2837 33.9349 38.7751C34.1283 39.2666 34.4241 39.7111 34.8027 40.0792L35.6945 40.971H32.1459C30.7349 40.971 29.3814 40.4118 28.382 39.4158C27.3825 38.4199 26.8186 37.0684 26.8137 35.6574V32.1459L21.5 26.8137L26.8137 21.5L32.1459 26.8137H35.6945Z" stroke="black" stroke-width="3" stroke-miterlimit="10" stroke-linejoin="round"/>
</svg>
