<svg width="41" height="41" viewBox="0 0 41 41" fill="none" xmlns="http://www.w3.org/2000/svg">
<path d="M22.6531 40.2675H7.78972C3.29355 40.2675 0.82251 37.7965 0.82251 33.3003V18.4369C0.82251 13.9408 3.29355 11.4697 7.78972 11.4697H17.0793C17.8411 11.4697 18.4728 12.1014 18.4728 12.8632V33.3003C18.4728 36.2358 19.7176 37.4807 22.6531 37.4807C23.4149 37.4807 24.0466 38.1123 24.0466 38.8741C24.0466 39.6358 23.4149 40.2675 22.6531 40.2675ZM7.78972 14.2566C4.8542 14.2566 3.60939 15.5014 3.60939 18.4369V33.3003C3.60939 36.2358 4.8542 37.4807 7.78972 37.4807H16.7078C16.0389 36.3845 15.6859 34.991 15.6859 33.3003V14.2566H7.78972Z" fill="black"/>
<path d="M17.0793 14.2567H7.78968C7.02793 14.2567 6.39624 13.625 6.39624 12.8632V9.14738C6.39624 6.32333 8.68149 4.03809 11.5055 4.03809H17.2837C17.711 4.03809 18.1197 4.24246 18.3798 4.57688C18.64 4.92989 18.7329 5.37579 18.6214 5.78453C18.5099 6.19328 18.4727 6.65776 18.4727 7.28945V12.8632C18.4727 13.625 17.8411 14.2567 17.0793 14.2567ZM9.18313 11.4698H15.6859V6.82497H11.5055C10.2236 6.82497 9.18313 7.86541 9.18313 9.14738V11.4698ZM24.511 23.5463C23.7492 23.5463 23.1176 22.9146 23.1176 22.1528V12.8632C23.1176 12.1015 23.7492 11.4698 24.511 11.4698C25.2727 11.4698 25.9044 12.1015 25.9044 12.8632V22.1528C25.9044 22.9146 25.2727 23.5463 24.511 23.5463ZM31.9427 23.5463C31.1809 23.5463 30.5492 22.9146 30.5492 22.1528V12.8632C30.5492 12.1015 31.1809 11.4698 31.9427 11.4698C32.7044 11.4698 33.3361 12.1015 33.3361 12.8632V22.1528C33.3361 22.9146 32.7044 23.5463 31.9427 23.5463ZM31.9427 40.2676H24.511C23.7492 40.2676 23.1176 39.6359 23.1176 38.8742V31.4425C23.1176 29.6589 24.5853 28.1911 26.3689 28.1911H30.0848C31.8684 28.1911 33.3361 29.6589 33.3361 31.4425V38.8742C33.3361 39.6359 32.7044 40.2676 31.9427 40.2676ZM25.9044 37.4807H30.5492V31.4425C30.5492 31.1823 30.3449 30.978 30.0848 30.978H26.3689C26.1088 30.978 25.9044 31.1823 25.9044 31.4425V37.4807ZM9.64761 30.978C8.88586 30.978 8.25416 30.3463 8.25416 29.5845V22.1528C8.25416 21.3911 8.88586 20.7594 9.64761 20.7594C10.4094 20.7594 11.041 21.3911 11.041 22.1528V29.5845C11.041 30.3463 10.4094 30.978 9.64761 30.978Z" fill="black"/>
<path d="M33.8005 40.2676H22.653C18.1568 40.2676 15.6858 37.7966 15.6858 33.3004V7.28948C15.6858 2.7933 18.1568 0.322266 22.653 0.322266H33.8005C38.2967 0.322266 40.7678 2.7933 40.7678 7.28948V33.3004C40.7678 37.7966 38.2967 40.2676 33.8005 40.2676ZM22.653 3.10915C19.7175 3.10915 18.4727 4.35396 18.4727 7.28948V33.3004C18.4727 36.2359 19.7175 37.4807 22.653 37.4807H33.8005C36.7361 37.4807 37.9809 36.2359 37.9809 33.3004V7.28948C37.9809 4.35396 36.7361 3.10915 33.8005 3.10915H22.653Z" fill="black"/>
</svg>
