<svg width="28" height="29" viewBox="0 0 28 29" fill="none" xmlns="http://www.w3.org/2000/svg">
<path fill-rule="evenodd" clip-rule="evenodd" d="M14.981 0.0625C16.2799 0.0625 17.3959 0.956847 17.6403 2.19371L17.7489 2.74371C18.176 4.90555 20.4824 6.19655 22.627 5.47427L23.1729 5.29043C24.3999 4.87721 25.7568 5.367 26.4061 6.45758L27.3871 8.10485C28.0366 9.19547 27.7956 10.5796 26.813 11.4032L26.376 11.7695C24.6584 13.209 24.6584 15.791 26.376 17.2305L26.813 17.5968C27.7956 18.4204 28.0366 19.8045 27.3871 20.8951L26.4063 22.5424C25.7568 23.633 24.3999 24.1228 23.1728 23.7095L22.6271 23.5256C20.4824 22.8033 18.176 24.0943 17.7489 26.2563L17.6403 26.8063C17.3959 28.0431 16.2799 28.9375 14.981 28.9375H13.019C11.7201 28.9375 10.6041 28.0431 10.3598 26.8064L10.251 26.256C9.82386 24.0943 7.51744 22.8033 5.37277 23.5256L4.82724 23.7094C3.6002 24.1228 2.24331 23.6329 1.59381 22.5423L0.612875 20.8951C-0.0366016 19.8045 0.204307 18.4204 1.18695 17.5968L1.62402 17.2305C3.34155 15.7909 3.34155 13.209 1.62402 11.7695L1.18695 11.4032C0.204307 10.5796 -0.0366004 9.1955 0.612875 8.1049L1.59385 6.45762C2.24332 5.36701 3.60017 4.87722 4.8272 5.29047L5.37289 5.47426C7.51751 6.19655 9.82386 4.90563 10.251 2.74385L10.3598 2.19361C10.6041 0.956798 11.72 0.0625 13.019 0.0625H14.981ZM14 18.625C16.2781 18.625 18.125 16.7781 18.125 14.5C18.125 12.2218 16.2781 10.375 14 10.375C11.7218 10.375 9.87496 12.2218 9.87496 14.5C9.87496 16.7781 11.7218 18.625 14 18.625Z" fill="url(#paint0_linear_1004_739)"/>
<path fill-rule="evenodd" clip-rule="evenodd" d="M14.981 0.0625C16.2799 0.0625 17.3959 0.956847 17.6403 2.19371L17.7489 2.74371C18.176 4.90555 20.4824 6.19655 22.627 5.47427L23.1729 5.29043C24.3999 4.87721 25.7568 5.367 26.4061 6.45758L27.3871 8.10485C28.0366 9.19547 27.7956 10.5796 26.813 11.4032L26.376 11.7695C24.6584 13.209 24.6584 15.791 26.376 17.2305L26.813 17.5968C27.7956 18.4204 28.0366 19.8045 27.3871 20.8951L26.4063 22.5424C25.7568 23.633 24.3999 24.1228 23.1728 23.7095L22.6271 23.5256C20.4824 22.8033 18.176 24.0943 17.7489 26.2563L17.6403 26.8063C17.3959 28.0431 16.2799 28.9375 14.981 28.9375H13.019C11.7201 28.9375 10.6041 28.0431 10.3598 26.8064L10.251 26.256C9.82386 24.0943 7.51744 22.8033 5.37277 23.5256L4.82724 23.7094C3.6002 24.1228 2.24331 23.6329 1.59381 22.5423L0.612875 20.8951C-0.0366016 19.8045 0.204307 18.4204 1.18695 17.5968L1.62402 17.2305C3.34155 15.7909 3.34155 13.209 1.62402 11.7695L1.18695 11.4032C0.204307 10.5796 -0.0366004 9.1955 0.612875 8.1049L1.59385 6.45762C2.24332 5.36701 3.60017 4.87722 4.8272 5.29047L5.37289 5.47426C7.51751 6.19655 9.82386 4.90563 10.251 2.74385L10.3598 2.19361C10.6041 0.956798 11.72 0.0625 13.019 0.0625H14.981ZM14 18.625C16.2781 18.625 18.125 16.7781 18.125 14.5C18.125 12.2218 16.2781 10.375 14 10.375C11.7218 10.375 9.87496 12.2218 9.87496 14.5C9.87496 16.7781 11.7218 18.625 14 18.625Z" fill="#FFB801"/>
<defs>
<linearGradient id="paint0_linear_1004_739" x1="14" y1="0.0625" x2="14" y2="28.9375" gradientUnits="userSpaceOnUse">
<stop stop-color="#97B0BE"/>
<stop offset="1" stop-color="#97B0BE" stop-opacity="0"/>
</linearGradient>
</defs>
</svg>
