<svg width="32" height="34" viewBox="0 0 32 34" fill="none" xmlns="http://www.w3.org/2000/svg">
<path d="M12.53 28.6264C11.24 28.6264 9.95 28.0114 8.72 26.7814L2.705 20.7664C1.49 19.5514 0.875 18.2764 0.875 16.9564C0.875 15.6514 1.49 14.3614 2.705 13.1464L12.725 3.12637C12.9359 2.9157 13.2219 2.79736 13.52 2.79736C13.8181 2.79736 14.1041 2.9157 14.315 3.12637L25.34 14.1514C25.82 14.6314 26.09 15.2614 26.09 15.9514C26.09 16.6264 25.82 17.2714 25.34 17.7514L16.31 26.7814C15.11 28.0114 13.82 28.6264 12.53 28.6264ZM13.535 5.52637L4.31 14.7514C3.53 15.5314 3.14 16.2814 3.14 16.9714C3.14 17.6614 3.53 18.4114 4.31 19.1764L10.325 25.1914C11.9 26.7664 13.175 26.7664 14.75 25.1914L23.78 16.1614C23.87 16.0714 23.885 15.8464 23.78 15.7414L13.535 5.52637Z" fill="black"/>
<path d="M13.535 5.05996C13.25 5.05996 12.965 4.95496 12.74 4.72996L10.73 2.71996C10.5207 2.50825 10.4034 2.22261 10.4034 1.92496C10.4034 1.62732 10.5207 1.34167 10.73 1.12996C11.165 0.694961 11.885 0.694961 12.32 1.12996L14.33 3.13996C14.765 3.57496 14.765 4.29496 14.33 4.72996C14.105 4.95496 13.82 5.05996 13.535 5.05996ZM2.10647 18.0035C1.8081 18.0094 1.51958 17.8966 1.30438 17.6899C1.08918 17.4831 0.964933 17.1993 0.958965 16.901C0.952998 16.6026 1.0658 16.3141 1.27256 16.0989C1.47932 15.8837 1.7631 15.7594 2.06147 15.7535L24.7565 14.7635C25.3715 14.7335 25.8965 15.2135 25.9265 15.8435C25.9565 16.4585 25.4765 16.9835 24.8465 17.0135L2.15147 18.0035H2.10647ZM23 33.125H3.49997C2.88497 33.125 2.37497 32.615 2.37497 32C2.37497 31.385 2.88497 30.875 3.49997 30.875H23C23.615 30.875 24.125 31.385 24.125 32C24.125 32.615 23.615 33.125 23 33.125ZM27.275 30.2435C25.13 30.2435 23.375 28.4885 23.375 26.3435C23.375 24.1685 25.94 21.2885 26.45 20.7185C26.87 20.2535 27.68 20.2535 28.1 20.7185C28.61 21.2735 31.175 24.1535 31.175 26.3285C31.175 28.5035 29.42 30.2435 27.275 30.2435ZM27.275 23.2535C26.45 24.3335 25.625 25.6535 25.625 26.3585C25.625 27.2735 26.36 28.0085 27.275 28.0085C28.19 28.0085 28.925 27.2735 28.925 26.3585C28.925 25.6385 28.1 24.3185 27.275 23.2535Z" fill="black"/>
</svg>
