<svg width="41" height="38" viewBox="0 0 41 38" fill="none" xmlns="http://www.w3.org/2000/svg">
<path d="M1.71582 14.0791H38.8742" stroke="white" stroke-width="2.5" stroke-miterlimit="10" stroke-linecap="round" stroke-linejoin="round"/>
<path d="M19.4553 33.5875H9.96133C3.36573 33.5875 1.6936 31.9525 1.6936 25.4312V10.1592C1.6936 4.25098 3.06846 2.35591 8.25205 2.05864C8.77227 2.04006 9.34822 2.02148 9.96133 2.02148H30.6028C37.1984 2.02148 38.8705 3.65645 38.8705 10.1777V18.3712" stroke="white" stroke-width="2.5" stroke-linecap="round" stroke-linejoin="round"/>
<path d="M9.14746 25.2266H16.5791M38.8741 28.9424C38.8741 30.3358 38.484 31.655 37.7965 32.7697C37.1416 33.8705 36.2112 34.7818 35.0971 35.4138C33.9829 36.0458 32.7234 36.3767 31.4425 36.3741C30.1615 36.3767 28.902 36.0458 27.7879 35.4138C26.6737 34.7818 25.7434 33.8705 25.0884 32.7697C24.3812 31.6186 24.0081 30.2934 24.0108 28.9424C24.0108 24.8364 27.3365 21.5107 31.4425 21.5107C35.5485 21.5107 38.8741 24.8364 38.8741 28.9424Z" stroke="white" stroke-width="2.5" stroke-miterlimit="10" stroke-linecap="round" stroke-linejoin="round"/>
<path d="M28.5459 28.9423L30.3852 30.7817L34.3426 27.1216" stroke="white" stroke-width="2.5" stroke-linecap="round" stroke-linejoin="round"/>
</svg>
