<svg width="41" height="41" viewBox="0 0 41 41" fill="none" xmlns="http://www.w3.org/2000/svg">
<path d="M35.5023 25.4042C32.6783 25.4042 30.393 23.119 30.393 20.2949C30.393 17.4709 32.6783 15.1857 35.5023 15.1857C38.3264 15.1857 40.6116 17.4709 40.6116 20.2949C40.6116 23.119 38.3264 25.4042 35.5023 25.4042ZM35.5023 17.9725C34.8864 17.9725 34.2957 18.2172 33.8601 18.6528C33.4246 19.0883 33.1799 19.679 33.1799 20.2949C33.1799 20.9109 33.4246 21.5016 33.8601 21.9371C34.2957 22.3727 34.8864 22.6173 35.5023 22.6173C36.1183 22.6173 36.709 22.3727 37.1445 21.9371C37.5801 21.5016 37.8247 20.9109 37.8247 20.2949C37.8247 19.679 37.5801 19.0883 37.1445 18.6528C36.709 18.2172 36.1183 17.9725 35.5023 17.9725ZM35.5023 10.5408C32.6783 10.5408 30.393 8.2556 30.393 5.43156C30.393 2.60751 32.6783 0.322266 35.5023 0.322266C38.3264 0.322266 40.6116 2.60751 40.6116 5.43156C40.6116 8.2556 38.3264 10.5408 35.5023 10.5408ZM35.5023 3.10915C34.8864 3.10915 34.2957 3.35383 33.8601 3.78937C33.4246 4.2249 33.1799 4.81562 33.1799 5.43156C33.1799 6.0475 33.4246 6.63821 33.8601 7.07374C34.2957 7.50928 34.8864 7.75396 35.5023 7.75396C36.1183 7.75396 36.709 7.50928 37.1445 7.07374C37.5801 6.63821 37.8247 6.0475 37.8247 5.43156C37.8247 4.81562 37.5801 4.2249 37.1445 3.78937C36.709 3.35383 36.1183 3.10915 35.5023 3.10915ZM35.5023 40.2676C32.6783 40.2676 30.393 37.9824 30.393 35.1583C30.393 32.3343 32.6783 30.049 35.5023 30.049C38.3264 30.049 40.6116 32.3343 40.6116 35.1583C40.6116 37.9824 38.3264 40.2676 35.5023 40.2676ZM35.5023 32.8359C34.8864 32.8359 34.2957 33.0806 33.8601 33.5161C33.4246 33.9517 33.1799 34.5424 33.1799 35.1583C33.1799 35.7743 33.4246 36.365 33.8601 36.8005C34.2957 37.2361 34.8864 37.4807 35.5023 37.4807C36.1183 37.4807 36.709 37.2361 37.1445 36.8005C37.5801 36.365 37.8247 35.7743 37.8247 35.1583C37.8247 34.5424 37.5801 33.9517 37.1445 33.5161C36.709 33.0806 36.1183 32.8359 35.5023 32.8359ZM5.77555 25.4042C2.95151 25.4042 0.66626 23.119 0.66626 20.2949C0.66626 17.4709 2.95151 15.1857 5.77555 15.1857C8.59959 15.1857 10.8848 17.4709 10.8848 20.2949C10.8848 23.119 8.59959 25.4042 5.77555 25.4042ZM5.77555 17.9725C5.15961 17.9725 4.5689 18.2172 4.13336 18.6528C3.69783 19.0883 3.45315 19.679 3.45315 20.2949C3.45315 20.9109 3.69783 21.5016 4.13336 21.9371C4.5689 22.3727 5.15961 22.6173 5.77555 22.6173C6.39149 22.6173 6.9822 22.3727 7.41774 21.9371C7.85327 21.5016 8.09795 20.9109 8.09795 20.2949C8.09795 19.679 7.85327 19.0883 7.41774 18.6528C6.9822 18.2172 6.39149 17.9725 5.77555 17.9725Z" fill="black"/>
<path d="M31.7864 21.6887H9.49134C8.72959 21.6887 8.0979 21.057 8.0979 20.2953C8.0979 19.5335 8.72959 18.9019 9.49134 18.9019H31.7864C32.5482 18.9019 33.1799 19.5335 33.1799 20.2953C33.1799 21.057 32.5482 21.6887 31.7864 21.6887Z" fill="black"/>
<path d="M31.7864 36.5517H24.3547C19.8585 36.5517 17.3875 34.0807 17.3875 29.5845V11.0053C17.3875 6.50912 19.8585 4.03809 24.3547 4.03809H31.7864C32.5481 4.03809 33.1798 4.66978 33.1798 5.43153C33.1798 6.19328 32.5481 6.82497 31.7864 6.82497H24.3547C21.4191 6.82497 20.1743 8.06978 20.1743 11.0053V29.5845C20.1743 32.5201 21.4191 33.7649 24.3547 33.7649H31.7864C32.5481 33.7649 33.1798 34.3966 33.1798 35.1583C33.1798 35.9201 32.5481 36.5517 31.7864 36.5517Z" fill="black"/>
</svg>
