<svg width="28" height="29" viewBox="0 0 28 29" fill="none" xmlns="http://www.w3.org/2000/svg">
<path d="M23.8525 5.0731C23.7713 4.98773 23.689 4.90313 23.6054 4.8194C23.5962 4.81019 23.586 4.80223 23.5765 4.79331C21.0087 2.25898 17.612 0.86377 14.0004 0.86377C10.3579 0.86377 6.9336 2.28219 4.35813 4.85786C-0.958568 10.1746 -0.958568 18.8257 4.35813 24.1425C6.9337 26.7182 10.358 28.1366 14.0004 28.1366C17.6428 28.1366 21.0672 26.7182 23.6427 24.1425C28.8884 18.8968 28.958 10.4055 23.8525 5.0731ZM6.39272 6.89255C8.42483 4.86045 11.1266 3.74129 14.0004 3.74129C16.3697 3.74129 18.6217 4.50268 20.4783 5.90854L5.40813 20.9751C2.22953 16.7628 2.55718 10.7282 6.39272 6.89255Z" fill="url(#paint0_linear_1004_566)"/>
<path d="M23.8525 5.0731C23.7713 4.98773 23.689 4.90313 23.6054 4.8194C23.5962 4.81019 23.586 4.80223 23.5765 4.79331C21.0087 2.25898 17.612 0.86377 14.0004 0.86377C10.3579 0.86377 6.9336 2.28219 4.35813 4.85786C-0.958568 10.1746 -0.958568 18.8257 4.35813 24.1425C6.9337 26.7182 10.358 28.1366 14.0004 28.1366C17.6428 28.1366 21.0672 26.7182 23.6427 24.1425C28.8884 18.8968 28.958 10.4055 23.8525 5.0731ZM6.39272 6.89255C8.42483 4.86045 11.1266 3.74129 14.0004 3.74129C16.3697 3.74129 18.6217 4.50268 20.4783 5.90854L5.40813 20.9751C2.22953 16.7628 2.55718 10.7282 6.39272 6.89255Z" fill="#FFB801"/>
<defs>
<linearGradient id="paint0_linear_1004_566" x1="14.0003" y1="0.86377" x2="14.0003" y2="28.1366" gradientUnits="userSpaceOnUse">
<stop stop-color="#97B0BE"/>
<stop offset="1" stop-color="#97B0BE" stop-opacity="0"/>
</linearGradient>
</defs>
</svg>
