<svg width="32" height="34" viewBox="0 0 32 34" fill="none" xmlns="http://www.w3.org/2000/svg">
<path d="M16.0016 18.9498C15.8066 18.9498 15.6116 18.9048 15.4316 18.7998L2.18661 11.1348C2.05844 11.0601 1.94626 10.9608 1.85651 10.8427C1.76676 10.7246 1.7012 10.5899 1.66357 10.4464C1.62595 10.3028 1.61702 10.1533 1.63727 10.0063C1.65753 9.85936 1.70658 9.71782 1.78161 9.58983C1.85605 9.46136 1.95518 9.34889 2.07329 9.25891C2.19139 9.16893 2.32615 9.10323 2.46977 9.06558C2.6134 9.02793 2.76305 9.01908 2.91011 9.03955C3.05717 9.06002 3.19873 9.10939 3.32661 9.18483L16.0016 16.5198L28.6016 9.22983C28.8609 9.08148 29.168 9.04079 29.4569 9.11653C29.7458 9.19227 29.9935 9.37838 30.1466 9.63483C30.4616 10.1748 30.2666 10.8648 29.7416 11.1798L16.5866 18.7998C16.4047 18.8915 16.2052 18.9427 16.0016 18.9498Z" fill="black"/>
<path d="M16 32.5401C15.385 32.5401 14.875 32.0301 14.875 31.4151V17.8101C14.875 17.1951 15.385 16.6851 16 16.6851C16.615 16.6851 17.125 17.1951 17.125 17.8101V31.4151C17.125 32.0301 16.615 32.5401 16 32.5401Z" fill="black"/>
<path d="M16 33.125C14.68 33.125 13.375 32.84 12.34 32.27L4.32996 27.815C2.15496 26.615 0.459961 23.72 0.459961 21.23V12.755C0.459961 10.265 2.15496 7.385 4.32996 6.17L12.34 1.73C14.395 0.59 17.605 0.59 19.66 1.73L27.67 6.185C29.845 7.385 31.54 10.28 31.54 12.77V21.245C31.54 23.735 29.845 26.615 27.67 27.83L19.66 32.27C18.625 32.84 17.32 33.125 16 33.125ZM16 3.125C15.055 3.125 14.125 3.32 13.435 3.695L5.42496 8.15C3.98496 8.96 2.70996 11.105 2.70996 12.77V21.245C2.70996 22.895 3.98496 25.055 5.42496 25.865L13.435 30.32C14.8 31.085 17.2 31.085 18.565 30.32L26.575 25.865C28.015 25.055 29.29 22.91 29.29 21.245V12.77C29.29 11.12 28.015 8.96 26.575 8.15L18.565 3.695C17.875 3.32 16.945 3.125 16 3.125Z" fill="black"/>
<path d="M23.5016 19.9848C22.8866 19.9848 22.3766 19.4748 22.3766 18.8598V14.0298L8.69661 6.13985C8.56895 6.06657 8.45709 5.96869 8.36751 5.85189C8.27794 5.73509 8.21242 5.60168 8.17475 5.45938C8.13709 5.31708 8.12802 5.16873 8.14808 5.02291C8.16814 4.87708 8.21692 4.73669 8.29161 4.60984C8.36459 4.48189 8.46232 4.36973 8.57909 4.27993C8.69586 4.19012 8.82934 4.12446 8.97175 4.08676C9.11415 4.04907 9.26264 4.04009 9.40855 4.06037C9.55446 4.08064 9.69487 4.12975 9.82161 4.20484L24.0566 12.4248C24.4016 12.6198 24.6266 12.9948 24.6266 13.3998V18.8898C24.6266 19.4748 24.1166 19.9848 23.5016 19.9848Z" fill="black"/>
</svg>
