<svg width="34" height="34" viewBox="0 0 34 34" fill="none" xmlns="http://www.w3.org/2000/svg">
<path d="M7.26807 8.75C6.44307 8.75 5.76807 8.075 5.76807 7.25C5.76807 6.425 6.42807 5.75 7.26807 5.75H7.28307C8.10807 5.75 8.78307 6.425 8.78307 7.25C8.78307 8.075 8.10807 8.75 7.26807 8.75ZM26.7681 28.25C25.9431 28.25 25.2681 27.575 25.2681 26.75C25.2681 25.925 25.9281 25.25 26.7681 25.25H26.7831C27.6081 25.25 28.2831 25.925 28.2831 26.75C28.2831 27.575 27.6081 28.25 26.7681 28.25Z" fill="black"/>
<path d="M7.20361 13.625C5.51408 13.621 3.89487 12.9481 2.70018 11.7534C1.5055 10.5587 0.832575 8.93954 0.828613 7.25C0.832575 5.56046 1.5055 3.94126 2.70018 2.74657C3.89487 1.55188 5.51408 0.878961 7.20361 0.875C8.89315 0.878961 10.5124 1.55188 11.707 2.74657C12.9017 3.94126 13.5747 5.56046 13.5786 7.25C13.5786 10.76 10.7286 13.625 7.20361 13.625ZM7.20361 3.125C4.92361 3.125 3.07861 4.97 3.07861 7.25C3.07861 9.53 4.92361 11.375 7.20361 11.375C9.48361 11.375 11.3286 9.53 11.3286 7.25C11.3286 4.97 9.48361 3.125 7.20361 3.125ZM28.9536 33.125H24.4536C22.1736 33.125 20.3286 31.28 20.3286 29V24.5C20.3286 22.22 22.1736 20.375 24.4536 20.375H28.9536C31.2336 20.375 33.0786 22.22 33.0786 24.5V29C33.0786 31.28 31.2336 33.125 28.9536 33.125ZM24.4536 22.625C23.4186 22.625 22.5786 23.465 22.5786 24.5V29C22.5786 30.035 23.4186 30.875 24.4536 30.875H28.9536C29.9886 30.875 30.8286 30.035 30.8286 29V24.5C30.8286 23.465 29.9886 22.625 28.9536 22.625H24.4536ZM17.0016 28.625H12.9816C11.2416 28.625 9.72661 27.575 9.12661 25.955C8.51161 24.335 8.96161 22.55 10.2666 21.395L22.2516 10.91C22.9716 10.28 22.9866 9.425 22.7766 8.84C22.5516 8.255 21.9816 7.625 21.0216 7.625H17.0016C16.3866 7.625 15.8766 7.115 15.8766 6.5C15.8766 5.885 16.3866 5.375 17.0016 5.375H21.0216C22.7616 5.375 24.2766 6.425 24.8766 8.045C25.4916 9.665 25.0416 11.45 23.7366 12.605L11.7516 23.09C11.0316 23.72 11.0166 24.575 11.2266 25.16C11.4516 25.745 12.0216 26.375 12.9816 26.375H17.0016C17.6166 26.375 18.1266 26.885 18.1266 27.5C18.1266 28.115 17.6166 28.625 17.0016 28.625Z" fill="black"/>
</svg>
