<svg width="30" height="34" viewBox="0 0 30 34" fill="none" xmlns="http://www.w3.org/2000/svg">
<path d="M18 33.125H12C3.855 33.125 0.375 29.645 0.375 21.5V12.5C0.375 4.355 3.855 0.875 12 0.875H18C26.145 0.875 29.625 4.355 29.625 12.5V21.5C29.625 29.645 26.145 33.125 18 33.125ZM12 3.125C5.085 3.125 2.625 5.585 2.625 12.5V21.5C2.625 28.415 5.085 30.875 12 30.875H18C24.915 30.875 27.375 28.415 27.375 21.5V12.5C27.375 5.585 24.915 3.125 18 3.125H12Z" fill="black"/>
<path d="M19.5 15.2422H10.5C8.64 15.2422 7.125 13.7272 7.125 11.8672V10.3672C7.125 8.50719 8.64 6.99219 10.5 6.99219H19.5C21.36 6.99219 22.875 8.50719 22.875 10.3672V11.8672C22.875 13.7272 21.36 15.2422 19.5 15.2422ZM10.5 9.24219C9.885 9.24219 9.375 9.75219 9.375 10.3672V11.8672C9.375 12.4822 9.885 12.9922 10.5 12.9922H19.5C20.115 12.9922 20.625 12.4822 20.625 11.8672V10.3672C20.625 9.75219 20.115 9.24219 19.5 9.24219H10.5ZM9.225 21.3787C9.03 21.3787 8.835 21.3337 8.655 21.2587C8.476 21.186 8.31294 21.079 8.175 20.9437C8.0353 20.804 7.92487 20.6379 7.85018 20.455C7.77549 20.2722 7.73803 20.0762 7.74 19.8787C7.73769 19.6811 7.77499 19.4851 7.84971 19.3022C7.92442 19.1192 8.03503 18.9531 8.175 18.8137C8.235 18.7537 8.31 18.6787 8.4 18.6337C8.475 18.5737 8.565 18.5287 8.655 18.4987C8.83711 18.422 9.03259 18.3822 9.23017 18.3815C9.42775 18.3808 9.62352 18.4192 9.80619 18.4945C9.98886 18.5698 10.1548 18.6805 10.2945 18.8202C10.4342 18.96 10.5448 19.126 10.62 19.3087C10.695 19.4887 10.74 19.6837 10.74 19.8787C10.7392 20.0771 10.699 20.2735 10.6217 20.4563C10.5445 20.6391 10.4317 20.8048 10.29 20.9437C10.1503 21.0834 9.98421 21.1938 9.80134 21.2685C9.61846 21.3432 9.42253 21.3807 9.225 21.3787ZM15.24 21.3832C15.0425 21.3852 14.8465 21.3478 14.6636 21.2731C14.4807 21.1984 14.3146 21.088 14.1749 20.9483C14.0352 20.8086 13.9248 20.6425 13.8501 20.4596C13.7754 20.2767 13.738 20.0807 13.74 19.8832C13.7377 19.6856 13.775 19.4896 13.8497 19.3067C13.9244 19.1237 14.035 18.9576 14.175 18.8182C14.235 18.7582 14.31 18.6832 14.4 18.6382C14.475 18.5782 14.565 18.5332 14.655 18.5032C14.8374 18.4245 15.0339 18.3839 15.2325 18.3839C15.4311 18.3839 15.6276 18.4245 15.81 18.5032C15.99 18.5782 16.155 18.6832 16.29 18.8182C16.425 18.9682 16.545 19.1182 16.62 19.3132C16.695 19.4932 16.74 19.6882 16.74 19.8832C16.7392 20.0816 16.699 20.278 16.6217 20.4608C16.5445 20.6436 16.4317 20.8093 16.29 20.9482C16.005 21.2332 15.63 21.3832 15.24 21.3832ZM21.225 21.3817C21.03 21.3817 20.835 21.3367 20.655 21.2617C20.473 21.1872 20.3076 21.0772 20.1686 20.9381C20.0295 20.799 19.9195 20.6337 19.845 20.4517C19.7727 20.2705 19.7371 20.0768 19.74 19.8817C19.7377 19.6841 19.775 19.4881 19.8497 19.3052C19.9244 19.1222 20.035 18.9561 20.175 18.8167C20.73 18.2617 21.735 18.2617 22.29 18.8167C22.575 19.1017 22.74 19.4917 22.74 19.8817C22.7392 20.0801 22.699 20.2765 22.6217 20.4593C22.5445 20.6421 22.4317 20.8078 22.29 20.9467C22.02 21.2167 21.645 21.3817 21.225 21.3817ZM9.237 27.3787C9.03947 27.3807 8.84354 27.3432 8.66067 27.2685C8.47779 27.1938 8.31166 27.0834 8.172 26.9437C8.03027 26.8048 7.91751 26.6391 7.84027 26.4563C7.76302 26.2735 7.72282 26.0771 7.722 25.8787C7.72548 25.6321 7.78871 25.3899 7.90627 25.1731C8.02383 24.9563 8.19222 24.7712 8.397 24.6337C8.472 24.5737 8.562 24.5287 8.652 24.4987C8.742 24.4537 8.847 24.4237 8.937 24.4087C9.432 24.3187 9.942 24.4687 10.287 24.8137C10.362 24.8887 10.422 24.9637 10.482 25.0387L10.617 25.3087L10.707 25.5787C10.722 25.6837 10.737 25.7737 10.737 25.8787C10.7362 26.0771 10.696 26.2735 10.6187 26.4563C10.5415 26.6391 10.4287 26.8048 10.287 26.9437C10.002 27.2287 9.627 27.3787 9.237 27.3787ZM15.237 27.3787C15.0395 27.3807 14.8435 27.3432 14.6607 27.2685C14.4778 27.1938 14.3117 27.0834 14.172 26.9437C14.0303 26.8048 13.9175 26.6391 13.8403 26.4563C13.763 26.2735 13.7228 26.0771 13.722 25.8787C13.722 25.4887 13.887 25.0987 14.172 24.8137C14.517 24.4687 15.042 24.3187 15.522 24.4087C15.612 24.4237 15.717 24.4537 15.807 24.4987C15.897 24.5287 15.987 24.5737 16.062 24.6337C16.137 24.6787 16.212 24.7537 16.287 24.8137C16.572 25.0987 16.722 25.4887 16.722 25.8787C16.724 26.075 16.687 26.2697 16.6133 26.4516C16.5396 26.6335 16.4305 26.799 16.2924 26.9385C16.1543 27.0779 15.9899 27.1887 15.8088 27.2642C15.6276 27.3398 15.4333 27.3787 15.237 27.3787ZM21.225 27.3802C21.0287 27.3802 20.8344 27.3413 20.6532 27.2657C20.4721 27.1902 20.3077 27.0794 20.1696 26.94C20.0315 26.8005 19.9224 26.635 19.8487 26.4531C19.775 26.2712 19.738 26.0765 19.74 25.8802C19.74 25.4902 19.89 25.1002 20.175 24.8152C20.31 24.6802 20.475 24.5752 20.655 24.5002C21.21 24.2752 21.885 24.3952 22.29 24.8152C22.575 25.1002 22.725 25.4902 22.725 25.8802C22.725 26.2852 22.575 26.6602 22.29 26.9452C22.155 27.0802 21.99 27.1852 21.81 27.2602C21.63 27.3352 21.435 27.3802 21.225 27.3802Z" fill="black"/>
</svg>
