<svg width="34" height="32" viewBox="0 0 34 32" fill="none" xmlns="http://www.w3.org/2000/svg">
<path d="M16.9999 31.1198C16.5499 31.1198 16.0999 31.0148 15.7249 30.8048C12.9199 29.2748 7.99989 27.6548 4.90989 27.2498L4.47489 27.1898C2.50989 26.9498 0.889893 25.1048 0.889893 23.1098V4.98977C0.889893 3.80477 1.35489 2.72477 2.20989 1.94477C3.06489 1.16477 4.17489 0.789767 5.34489 0.894767C8.62989 1.16477 13.6099 2.81477 16.4299 4.56977L16.7899 4.77977C16.8949 4.82477 17.1199 4.83977 17.2099 4.77977L17.4499 4.62977C18.4549 3.99977 19.7149 3.38477 21.0949 2.82977C21.2666 2.76353 21.4518 2.73985 21.6346 2.76074C21.8175 2.78164 21.9926 2.8465 22.1449 2.94977C22.4599 3.15977 22.6399 3.50477 22.6399 3.87977V7.89977L23.8849 7.07477C24.2599 6.81977 24.7549 6.81977 25.1299 7.07477L26.3749 7.89977V2.16977C26.3749 1.62977 26.7649 1.16477 27.2899 1.05977C27.7249 0.984767 28.1599 0.924767 28.5499 0.894767H28.7299C29.8249 0.804767 30.9499 1.17977 31.7899 1.95977C32.6449 2.73977 33.1099 3.81977 33.1099 5.00477V23.1098C33.1099 25.1198 31.4899 26.9498 29.5099 27.1898L29.0149 27.2498C25.9249 27.6548 20.9749 29.2898 18.2299 30.8048C17.8999 31.0148 17.4499 31.1198 16.9999 31.1198ZM4.96989 3.11477C4.48989 3.11477 4.05489 3.27977 3.70989 3.59477C3.33489 3.93977 3.12489 4.43477 3.12489 4.98977V23.1098C3.12489 23.9948 3.88989 24.8498 4.74489 24.9698L5.19489 25.0298C8.56989 25.4798 13.7449 27.1748 16.7449 28.8248C16.8799 28.8848 17.0749 28.8998 17.1499 28.8698C20.1649 27.2048 25.3549 25.4948 28.7449 25.0448L29.2549 24.9848C30.1099 24.8798 30.8749 24.0098 30.8749 23.1248V5.01977C30.8749 4.46477 30.6649 3.98477 30.2899 3.62477C29.9149 3.27977 29.3899 3.11477 28.8499 3.14477H28.6399V9.99977C28.6399 10.4198 28.4149 10.7948 28.0399 10.9898C27.6649 11.1848 27.2299 11.1698 26.8849 10.9298L24.5149 9.35477L22.1449 10.9298C21.7999 11.1548 21.3649 11.1848 20.9899 10.9898C20.81 10.8941 20.6592 10.7516 20.5536 10.5774C20.448 10.4031 20.3914 10.2035 20.3899 9.99977V5.60477C19.7449 5.91977 19.1599 6.23477 18.6499 6.53477L18.4099 6.68477C17.5849 7.19477 16.4149 7.19477 15.6199 6.69977L15.2599 6.47477C12.7249 4.88477 8.10489 3.35477 5.16489 3.11477H4.96989Z" fill="black"/>
<path d="M17 29.8572C16.385 29.8572 15.875 29.3472 15.875 28.7322V6.23224C15.875 5.61724 16.385 5.10724 17 5.10724C17.615 5.10724 18.125 5.61724 18.125 6.23224V28.7322C18.125 29.3622 17.615 29.8572 17 29.8572ZM27.5 11.1237C27.275 11.1237 27.065 11.0637 26.87 10.9287L24.5 9.35373L22.13 10.9287C21.785 11.1537 21.35 11.1837 20.975 10.9887C20.7952 10.8929 20.6445 10.7504 20.5389 10.5762C20.4334 10.402 20.3767 10.2025 20.375 9.99874V3.87874C20.375 3.41374 20.66 3.00874 21.08 2.82874C23.15 2.00374 25.415 1.35874 27.32 1.05874C27.65 0.998736 27.98 1.10374 28.235 1.31374C28.49 1.52374 28.625 1.83874 28.625 2.16874V9.99874C28.625 10.4187 28.4 10.7937 28.025 10.9887C27.8641 11.077 27.6835 11.1234 27.5 11.1237ZM24.5 6.87874C24.71 6.87874 24.935 6.93874 25.13 7.07374L26.375 7.89874V3.53374C25.175 3.80374 23.87 4.19374 22.625 4.65874V7.89874L23.87 7.07374C24.0554 6.94641 24.2751 6.87841 24.5 6.87874Z" fill="black"/>
</svg>
