<svg width="42" height="42" viewBox="0 0 42 42" fill="none" xmlns="http://www.w3.org/2000/svg">
<path d="M28.2266 21.2949C28.2266 23.2659 27.4436 25.1562 26.0499 26.5499C24.6562 27.9436 22.7659 28.7266 20.7949 28.7266C18.8239 28.7266 16.9337 27.9436 15.54 26.5499C14.1463 25.1562 13.3633 23.2659 13.3633 21.2949C13.3633 19.3239 14.1463 17.4337 15.54 16.04C16.9337 14.6463 18.8239 13.8633 20.7949 13.8633C22.7659 13.8633 24.6562 14.6463 26.0499 16.04C27.4436 17.4337 28.2266 19.3239 28.2266 21.2949ZM25.4397 21.2949C25.4397 20.0631 24.9504 18.8817 24.0793 18.0106C23.2082 17.1395 22.0268 16.6502 20.7949 16.6502C19.5631 16.6502 18.3817 17.1395 17.5106 18.0106C16.6395 18.8817 16.1502 20.0631 16.1502 21.2949C16.1502 22.5268 16.6395 23.7082 17.5106 24.5793C18.3817 25.4504 19.5631 25.9397 20.7949 25.9397C22.0268 25.9397 23.2082 25.4504 24.0793 24.5793C24.9504 23.7082 25.4397 22.5268 25.4397 21.2949Z" fill="black"/>
<path d="M20.7949 0.85791C21.2892 0.85791 21.7834 0.874631 22.2757 0.909932C23.6933 1.01212 24.7746 2.05627 25.0849 3.33266L25.7389 6.02663C25.7742 6.17155 25.9061 6.34434 26.1569 6.43723C26.6158 6.60259 27.0673 6.79024 27.5095 6.99832C27.751 7.11166 27.9665 7.08007 28.0947 7.00204L30.4635 5.5603C31.5839 4.87658 33.0851 4.90445 34.1608 5.83341C34.9077 6.48182 35.61 7.18226 36.2565 7.931C37.1874 9.00488 37.2134 10.5061 36.5296 11.6283L35.0879 13.9952C35.0099 14.1234 34.9801 14.339 35.0916 14.5805C35.2997 15.0227 35.4874 15.4741 35.6546 15.933C35.7437 16.1839 35.9184 16.3139 36.0633 16.3511L38.7573 17.0051C40.0337 17.3153 41.0778 18.3966 41.1782 19.8142C41.2488 20.8008 41.2488 21.7892 41.1782 22.7758C41.0778 24.1933 40.0337 25.2747 38.7573 25.5849L36.0633 26.2389C35.9184 26.2742 35.7456 26.4061 35.6527 26.6569C35.4874 27.1177 35.2997 27.5692 35.0916 28.0095C34.9783 28.251 35.0099 28.4666 35.0879 28.5947L36.5296 30.9636C37.2134 32.0839 37.1855 33.5851 36.2565 34.6608C35.6081 35.4077 34.9077 36.11 34.1589 36.7566C33.0851 37.6874 31.5839 37.7134 30.4617 37.0297L28.0947 35.5879C27.9665 35.5099 27.751 35.4802 27.5113 35.5917C27.0687 35.7999 26.6167 35.9878 26.1569 36.1546C25.9061 36.2438 25.776 36.4184 25.7389 36.5634L25.0849 39.2573C24.7746 40.5337 23.6933 41.5779 22.2757 41.6782C21.2892 41.7488 20.3007 41.7488 19.3142 41.6782C17.8966 41.5779 16.8153 40.5337 16.505 39.2573L15.851 36.5634C15.8157 36.4184 15.6838 36.2456 15.433 36.1528C14.9733 35.9877 14.522 35.8004 14.0804 35.5917C13.8389 35.4783 13.6234 35.5099 13.4952 35.5879L11.1263 37.0297C10.006 37.7134 8.50483 37.6855 7.4291 36.7566C6.68221 36.1082 5.97992 35.4077 5.33336 34.659C4.40255 33.5851 4.37654 32.0839 5.06025 30.9617L6.50199 28.5947C6.58003 28.4666 6.60975 28.251 6.49828 28.0114C6.29001 27.5687 6.10216 27.1168 5.93533 26.6569C5.84615 26.4061 5.67151 26.2761 5.52659 26.2389L2.83261 25.5849C1.55622 25.2747 0.512071 24.1933 0.409885 22.7758C0.339283 21.7898 0.339283 20.8001 0.409885 19.8142C0.512071 18.3966 1.55622 17.3153 2.83261 17.0051L5.52659 16.3511C5.67151 16.3158 5.84429 16.1839 5.93719 15.933C6.10254 15.4723 6.29019 15.0208 6.49828 14.5805C6.61161 14.339 6.58003 14.1234 6.50199 13.9952L5.06025 11.6264C4.37654 10.5061 4.40441 9.00488 5.33336 7.92914C5.98178 7.18226 6.68221 6.47997 7.43095 5.83341C8.50483 4.90259 10.006 4.87658 11.1282 5.5603L13.4952 7.00204C13.6234 7.08007 13.8389 7.1098 14.0804 6.99832C14.5226 6.79024 14.9741 6.60259 15.433 6.43538C15.6838 6.3462 15.8139 6.17155 15.851 6.02663L16.505 3.33266C16.8153 2.05627 17.8966 1.01212 19.3142 0.909932C19.8028 0.876489 20.297 0.85791 20.7949 0.85791ZM19.513 3.69123C19.4108 3.69866 19.2622 3.78413 19.2139 3.99036L18.558 6.68434C18.4191 7.22881 18.1476 7.73043 17.7676 8.14442C17.3877 8.55841 16.9111 8.8719 16.3805 9.0569C16.0021 9.19413 15.6302 9.34849 15.2658 9.51952C14.7592 9.76454 14.1999 9.88023 13.6377 9.85623C13.0755 9.83224 12.528 9.66932 12.0442 9.38203L9.67717 7.94029C9.4951 7.82881 9.3316 7.8734 9.25357 7.94029C8.60715 8.50124 8.0012 9.1072 7.44024 9.75362C7.37336 9.83165 7.32877 9.997 7.44024 10.1772L8.88199 12.5442C9.46537 13.527 9.51739 14.7365 9.01947 15.7658C8.84845 16.1302 8.69408 16.5022 8.55685 16.8806C8.37208 17.4118 8.05848 17.889 7.64411 18.2693C7.22973 18.6496 6.72753 18.9213 6.18243 19.0599L3.48845 19.712C3.28408 19.7622 3.19862 19.9108 3.19119 20.013C3.12987 20.8666 3.12987 21.7234 3.19119 22.577C3.19862 22.6791 3.28408 22.8278 3.49031 22.8761L6.18429 23.5319C6.72877 23.6708 7.23039 23.9424 7.64438 24.3223C8.05837 24.7023 8.37185 25.1788 8.55685 25.7094C8.69434 26.0884 8.84854 26.46 9.01947 26.8242C9.51739 27.8516 9.46537 29.0611 8.88199 30.0439L7.44024 32.4128C7.32877 32.5948 7.37336 32.7583 7.44024 32.8364C7.99948 33.4829 8.60701 34.0905 9.25357 34.6497C9.3316 34.7166 9.49696 34.7612 9.67717 34.6497L12.0442 33.208C12.5277 32.9199 13.0751 32.7564 13.6374 32.7321C14.1997 32.7077 14.7592 32.8234 15.2658 33.0686C15.6299 33.2414 16.0015 33.3956 16.3805 33.5331C16.9118 33.7179 17.3889 34.0315 17.7692 34.4458C18.1496 34.8602 18.4212 35.3624 18.5599 35.9075L19.212 38.6015C19.2622 38.8059 19.4108 38.8913 19.513 38.8988C20.3665 38.9601 21.2234 38.9601 22.0769 38.8988C22.1791 38.8913 22.3277 38.8059 22.376 38.5996L23.0319 35.9057C23.1708 35.361 23.4423 34.8591 23.8223 34.4448C24.2022 34.0306 24.6787 33.7167 25.2094 33.5312C25.588 33.3954 25.96 33.2417 26.3241 33.0705C26.8303 32.8254 27.3894 32.7098 27.9513 32.7337C28.5132 32.7577 29.0604 32.9207 29.5439 33.208L31.9127 34.6497C32.0948 34.7612 32.2583 34.7166 32.3363 34.6497C32.9829 34.0905 33.5904 33.4829 34.1497 32.8364C34.2165 32.7583 34.2611 32.593 34.1497 32.4128L32.7079 30.0439C32.4208 29.5604 32.2578 29.0134 32.2335 28.4516C32.2092 27.8897 32.3243 27.3307 32.5686 26.8242C32.7414 26.46 32.8956 26.0884 33.033 25.7094C33.2178 25.1782 33.5314 24.701 33.9458 24.3207C34.3602 23.9404 34.8624 23.6687 35.4075 23.5301L38.1014 22.8779C38.3058 22.8278 38.3913 22.6791 38.3987 22.577C38.46 21.7234 38.46 20.8666 38.3987 20.013C38.3913 19.9108 38.3058 19.7622 38.0996 19.7139L35.4056 19.0581C34.2425 18.7757 33.3991 17.8969 33.0312 16.8806C32.896 16.5016 32.7423 16.1296 32.5704 15.7658C32.3254 15.2593 32.2097 14.6999 32.2337 14.1377C32.2577 13.5755 32.4206 13.028 32.7079 12.5442L34.1497 10.1772C34.2611 9.99514 34.2165 9.83165 34.1497 9.75362C33.5887 9.1072 32.9827 8.50124 32.3363 7.94029C32.2583 7.8734 32.0929 7.82881 31.9127 7.94029L29.5439 9.38203C29.0604 9.66931 28.5132 9.83224 27.9513 9.85624C27.3894 9.88023 26.8303 9.76454 26.3241 9.51952C25.96 9.34784 25.588 9.19347 25.2094 9.0569C24.6785 8.87155 24.2016 8.55775 23.8214 8.14347C23.4412 7.72919 23.1693 7.22729 23.03 6.68248L22.3779 3.9885C22.3277 3.78413 22.1791 3.69866 22.0769 3.69123C21.2234 3.62992 20.3665 3.62992 19.513 3.69123Z" fill="black"/>
</svg>
