<svg width="18" height="20" viewBox="0 0 18 20" fill="none" xmlns="http://www.w3.org/2000/svg">
<path d="M4.66858 19.28C3.87858 19.28 3.12858 19.09 2.46858 18.71C0.908584 17.81 0.048584 15.98 0.048584 13.57V6.43999C0.048584 4.01999 0.908584 2.19999 2.46858 1.29999C4.02858 0.399989 6.03858 0.569989 8.13858 1.77999L14.3086 5.33999C16.3986 6.54999 17.5586 8.20999 17.5586 10.01C17.5586 11.81 16.4086 13.47 14.3086 14.68L8.13858 18.24C6.92858 18.93 5.74858 19.28 4.66858 19.28ZM4.66858 2.21999C4.12858 2.21999 3.64858 2.33999 3.21858 2.58999C2.13858 3.20999 1.54858 4.57999 1.54858 6.43999V13.56C1.54858 15.42 2.13858 16.78 3.21858 17.41C4.29858 18.04 5.77858 17.86 7.38858 16.93L13.5586 13.37C15.1686 12.44 16.0586 11.25 16.0586 9.99999C16.0586 8.74999 15.1686 7.55999 13.5586 6.62999L7.38858 3.06999C6.40858 2.50999 5.48858 2.21999 4.66858 2.21999Z" fill="#FAFAFA"/>
</svg>
