<svg width="41" height="41" viewBox="0 0 41 41" fill="none" xmlns="http://www.w3.org/2000/svg">
<path d="M31.3109 40.6192C30.3262 40.6192 29.0628 40.3033 27.4836 39.3744L21.9284 36.0858C21.3525 35.7514 20.2377 35.7514 19.6803 36.0858L14.1066 39.3744C10.8181 41.3252 8.88584 40.5448 8.01262 39.9132C7.15798 39.2815 5.82028 37.6651 6.6935 33.9492L8.01262 28.2454C8.16125 27.6509 7.86399 26.629 7.41809 26.1831L2.81046 21.5755C0.506638 19.2717 0.69243 17.3023 1.00828 16.3362C1.32412 15.3701 2.3274 13.6608 5.52301 13.122L11.4498 12.1373C12.0071 12.0444 12.806 11.4499 13.0476 10.9482L16.3361 4.38978C17.8224 1.39854 19.7732 0.952637 20.7951 0.952637C21.8169 0.952637 23.7678 1.39854 25.2541 4.38978L28.524 10.9296C28.7841 11.4313 29.583 12.0258 30.1404 12.1187L36.0672 13.1034C39.2814 13.6422 40.2846 15.3515 40.5819 16.3176C40.8792 17.2837 41.065 19.2531 38.7797 21.5569L34.1721 26.1831C33.7262 26.629 33.4475 27.6323 33.5776 28.2454L34.8967 33.9492C35.7513 37.6651 34.4322 39.2815 33.5776 39.9132C33.1131 40.2476 32.3699 40.6192 31.3109 40.6192ZM20.7951 33.0389C21.7055 33.0389 22.6158 33.2618 23.3404 33.6891L28.8956 36.9776C30.512 37.9438 31.5338 37.9438 31.924 37.6651C32.3142 37.3864 32.5929 36.4017 32.1841 34.5809L30.865 28.8771C30.512 27.3351 31.0879 25.3471 32.2027 24.2138L36.8103 19.6061C37.7207 18.6957 38.1294 17.8039 37.9437 17.1908C37.7393 16.5777 36.8846 16.0761 35.6213 15.8717L29.6945 14.887C28.2639 14.6455 26.7033 13.4936 26.053 12.193L22.7831 5.65317C22.1885 4.4641 21.4454 3.75809 20.7951 3.75809C20.1448 3.75809 19.4017 4.4641 18.8257 5.65317L15.5372 12.193C14.8869 13.4936 13.3263 14.6455 11.8957 14.887L5.98749 15.8717C4.72411 16.0761 3.86947 16.5777 3.6651 17.1908C3.46073 17.8039 3.88805 18.7143 4.79843 19.6061L9.40606 24.2138C10.5208 25.3285 11.0968 27.3351 10.7438 28.8771L9.42464 34.5809C8.99732 36.4203 9.29458 37.3864 9.68475 37.6651C10.0749 37.9438 11.0782 37.9252 12.7132 36.9776L18.2683 33.6891C18.9743 33.2618 19.8847 33.0389 20.7951 33.0389Z" fill="white"/>
</svg>
