<svg width="20" height="25" viewBox="0 0 20 25" fill="none" xmlns="http://www.w3.org/2000/svg">
<path fill-rule="evenodd" clip-rule="evenodd" d="M10.6025 -0.000315936C11.451 -0.00161594 12.204 -0.0027659 12.8995 0.285322C13.595 0.573409 14.1268 1.10671 14.7258 1.70762C15.9128 2.89826 17.1016 4.08711 18.2923 5.2741C18.8931 5.87316 19.4265 6.40483 19.7145 7.10033C20.0026 7.79585 20.0015 8.5489 20.0001 9.39741C19.9954 12.5423 20 15.6872 20 18.8322C20.0001 19.9403 20.0001 20.8951 19.8974 21.6596C19.7871 22.4789 19.5387 23.2644 18.9016 23.9016C18.2646 24.5386 17.4791 24.7871 16.6598 24.8972C15.8951 24.9999 14.9404 24.9999 13.8323 24.9998H6.16775C5.05963 24.9999 4.10485 24.9999 3.34027 24.8972C2.52088 24.7871 1.73544 24.5386 1.09835 23.9016C0.461278 23.2644 0.212853 22.4789 0.102691 21.6596C-0.000109468 20.8951 -5.9441e-05 19.9403 3.05895e-06 18.8322L1.55759e-05 6.24987C1.55759e-05 6.22235 3.05895e-06 6.19491 3.05895e-06 6.16758C-5.9441e-05 5.05947 -0.000109468 4.10471 0.102691 3.34012C0.212853 2.52073 0.461278 1.7353 1.09837 1.09822C1.73544 0.461134 2.52088 0.212709 3.34027 0.102547C4.10484 -0.000253374 5.05961 -0.000203348 6.16773 -0.000140848C7.646 -5.33476e-05 9.12425 0.00195906 10.6025 -0.000315936Z" fill="url(#paint0_linear_1004_554)"/>
<path fill-rule="evenodd" clip-rule="evenodd" d="M10.6025 -0.000315936C11.451 -0.00161594 12.204 -0.0027659 12.8995 0.285322C13.595 0.573409 14.1268 1.10671 14.7258 1.70762C15.9128 2.89826 17.1016 4.08711 18.2923 5.2741C18.8931 5.87316 19.4265 6.40483 19.7145 7.10033C20.0026 7.79585 20.0015 8.5489 20.0001 9.39741C19.9954 12.5423 20 15.6872 20 18.8322C20.0001 19.9403 20.0001 20.8951 19.8974 21.6596C19.7871 22.4789 19.5387 23.2644 18.9016 23.9016C18.2646 24.5386 17.4791 24.7871 16.6598 24.8972C15.8951 24.9999 14.9404 24.9999 13.8323 24.9998H6.16775C5.05963 24.9999 4.10485 24.9999 3.34027 24.8972C2.52088 24.7871 1.73544 24.5386 1.09835 23.9016C0.461278 23.2644 0.212853 22.4789 0.102691 21.6596C-0.000109468 20.8951 -5.9441e-05 19.9403 3.05895e-06 18.8322L1.55759e-05 6.24987C1.55759e-05 6.22235 3.05895e-06 6.19491 3.05895e-06 6.16758C-5.9441e-05 5.05947 -0.000109468 4.10471 0.102691 3.34012C0.212853 2.52073 0.461278 1.7353 1.09837 1.09822C1.73544 0.461134 2.52088 0.212709 3.34027 0.102547C4.10484 -0.000253374 5.05961 -0.000203348 6.16773 -0.000140848C7.646 -5.33476e-05 9.12425 0.00195906 10.6025 -0.000315936Z" fill="#FFB801"/>
<defs>
<linearGradient id="paint0_linear_1004_554" x1="10.0002" y1="-0.000488281" x2="10.0002" y2="24.9998" gradientUnits="userSpaceOnUse">
<stop stop-color="#97B0BE"/>
<stop offset="1" stop-color="#97B0BE" stop-opacity="0"/>
</linearGradient>
</defs>
</svg>
