<svg width="34" height="43" viewBox="0 0 34 43" fill="none" xmlns="http://www.w3.org/2000/svg">
<path d="M31.6384 9.08946H8.58154V1.99219H28.0897L31.6384 5.54082V9.08946Z" stroke="black" stroke-width="3" stroke-miterlimit="10" stroke-linejoin="round"/>
<path d="M1.50293 7.58936C0.674503 7.58936 0.00292969 8.26093 0.00292969 9.08936C0.00292969 9.91778 0.674503 10.5894 1.50293 10.5894V7.58936ZM1.50293 10.5894H8.58162V7.58936H1.50293V10.5894Z" fill="black"/>
<path d="M31.6384 16.1865H8.58154V23.3581H28.0897L31.6384 19.8281V16.1865Z" stroke="black" stroke-width="3" stroke-miterlimit="10" stroke-linejoin="round"/>
<path d="M1.50293 14.6865C0.674503 14.6865 0.00292969 15.3581 0.00292969 16.1865C0.00292969 17.015 0.674503 17.6865 1.50293 17.6865V14.6865ZM1.50293 17.6865H8.58162V14.6865H1.50293V17.6865Z" fill="black"/>
<path d="M19.2276 9.08936H12.1304V16.1866H19.2276V9.08936Z" stroke="black" stroke-width="3" stroke-miterlimit="10"/>
<path d="M19.2276 23.2651H12.1304V41.0083H19.2276V23.2651Z" stroke="black" stroke-width="3" stroke-miterlimit="10" stroke-linejoin="round"/>
</svg>
