<svg width="37" height="43" viewBox="0 0 37 43" fill="none" xmlns="http://www.w3.org/2000/svg">
<path d="M34.4597 40.0794C34.4597 32.8892 27.3066 27.0739 18.5001 27.0739C9.69353 27.0739 2.54053 32.8892 2.54053 40.0794M18.5001 21.5001C20.9639 21.5001 23.3267 20.5214 25.0688 18.7793C26.811 17.0371 27.7897 14.6743 27.7897 12.2105C27.7897 9.74676 26.811 7.38391 25.0688 5.64176C23.3267 3.89962 20.9639 2.9209 18.5001 2.9209C16.0363 2.9209 13.6735 3.89962 11.9313 5.64176C10.1892 7.38391 9.21047 9.74676 9.21047 12.2105C9.21047 14.6743 10.1892 17.0371 11.9313 18.7793C13.6735 20.5214 16.0363 21.5001 18.5001 21.5001Z" stroke="black" stroke-width="4" stroke-linecap="round" stroke-linejoin="round"/>
</svg>
