<svg width="17" height="41" viewBox="0 0 17 41" fill="none" xmlns="http://www.w3.org/2000/svg">
<g filter="url(#filter0_i_569_1502)">
<path d="M8.41022 18.2896C13.4902 18.6096 16.0302 22.6096 16.0302 30.2896C16.0302 34.0097 15.3302 36.8497 13.9302 38.8097C12.5302 40.7696 10.7102 41.7496 8.47022 41.7496C4.15022 41.7496 1.99021 38.2497 1.99021 31.2497L4.21022 30.7097C4.21022 36.6297 5.63022 39.5896 8.47022 39.5896C10.1502 39.5896 11.4302 38.7896 12.3102 37.1897C13.2302 35.5497 13.6902 33.2696 13.6902 30.3496C13.6902 23.4697 11.5102 20.0296 7.15022 20.0296H5.59021V19.4296L11.9502 2.92965H0.970215V0.889648H15.0702V1.18965L8.41022 18.2896Z" fill="#041620"/>
</g>
<defs>
<filter id="filter0_i_569_1502" x="0.970215" y="0.889648" width="15.0601" height="40.8599" filterUnits="userSpaceOnUse" color-interpolation-filters="sRGB">
<feFlood flood-opacity="0" result="BackgroundImageFix"/>
<feBlend mode="normal" in="SourceGraphic" in2="BackgroundImageFix" result="shape"/>
<feColorMatrix in="SourceAlpha" type="matrix" values="0 0 0 0 0 0 0 0 0 0 0 0 0 0 0 0 0 0 127 0" result="hardAlpha"/>
<feOffset dy="100"/>
<feGaussianBlur stdDeviation="2"/>
<feComposite in2="hardAlpha" operator="arithmetic" k2="-1" k3="1"/>
<feColorMatrix type="matrix" values="0 0 0 0 1 0 0 0 0 0.6 0 0 0 0 0.00392157 0 0 0 1 0"/>
<feBlend mode="normal" in2="shape" result="effect1_innerShadow_569_1502"/>
</filter>
</defs>
</svg>
