<svg width="34" height="34" viewBox="0 0 34 34" fill="none" xmlns="http://www.w3.org/2000/svg">
<path d="M24.5 33.125H9.5C4.34 33.125 0.875 29.66 0.875 24.5V17C0.875 12.38 3.725 9.035 8.15 8.48C8.57 8.42 9.035 8.375 9.5 8.375H24.5C24.86 8.375 25.325 8.39 25.805 8.465C30.23 8.975 33.125 12.335 33.125 17V24.5C33.125 29.66 29.66 33.125 24.5 33.125ZM9.5 10.625C9.14 10.625 8.795 10.655 8.45 10.7C5.15 11.12 3.125 13.52 3.125 17V24.5C3.125 28.37 5.63 30.875 9.5 30.875H24.5C28.37 30.875 30.875 28.37 30.875 24.5V17C30.875 13.49 28.82 11.075 25.49 10.685C25.13 10.625 24.815 10.625 24.5 10.625H9.5Z" fill="black"/>
<path d="M8.28809 10.7167C7.92809 10.7167 7.59809 10.5517 7.37309 10.2517C7.24946 10.085 7.17542 9.88669 7.1595 9.67971C7.14358 9.47273 7.18642 9.26545 7.28309 9.08174C7.53809 8.57174 7.89809 8.07674 8.36309 7.62674L13.2381 2.73674C14.44 1.54775 16.0624 0.880859 17.7531 0.880859C19.4437 0.880859 21.0662 1.54775 22.2681 2.73674L24.8931 5.39174C26.0031 6.48674 26.6781 7.95674 26.7531 9.51674C26.7615 9.68449 26.7323 9.852 26.6676 10.007C26.603 10.1621 26.5045 10.3007 26.3795 10.4128C26.2544 10.5249 26.1059 10.6077 25.9448 10.6551C25.7836 10.7025 25.6139 10.7133 25.4481 10.6867C25.1481 10.6417 24.8331 10.6267 24.5031 10.6267H9.50309C9.14309 10.6267 8.79809 10.6567 8.45309 10.7017C8.40809 10.7167 8.34809 10.7167 8.28809 10.7167ZM10.7931 8.37674H24.2331C24.0381 7.86674 23.7231 7.40174 23.3031 6.98174L20.6631 4.31174C19.0581 2.72174 16.4331 2.72174 14.8131 4.31174L10.7931 8.37674ZM32.0001 24.8752H27.5001C25.2201 24.8752 23.3751 23.0302 23.3751 20.7502C23.3751 18.4702 25.2201 16.6252 27.5001 16.6252H32.0001C32.6151 16.6252 33.1251 17.1352 33.1251 17.7502C33.1251 18.3652 32.6151 18.8752 32.0001 18.8752H27.5001C27.0028 18.8752 26.5259 19.0728 26.1743 19.4244C25.8226 19.776 25.6251 20.253 25.6251 20.7502C25.6251 21.2475 25.8226 21.7244 26.1743 22.0761C26.5259 22.4277 27.0028 22.6252 27.5001 22.6252H32.0001C32.6151 22.6252 33.1251 23.1352 33.1251 23.7502C33.1251 24.3652 32.6151 24.8752 32.0001 24.8752Z" fill="black"/>
</svg>
