<svg width="58" height="58" viewBox="0 0 58 58" fill="none" xmlns="http://www.w3.org/2000/svg">
<path d="M44.6937 41.832C41.272 47.7659 35.8966 52.5307 29.2354 55.1464C22.5504 52.5211 17.1604 47.7316 13.7404 41.7682L9.66866 27.426C9.65778 27.0906 9.65234 26.7543 9.65234 26.417V13.3906L29.2355 2.854L48.8187 13.3906V26.4171C48.8187 26.7545 48.8132 27.091 48.8022 27.4265L44.6937 41.832Z" fill="#FFB801"/>
<path d="M9.65234 13.3902V26.4167C9.65234 26.754 9.65778 27.0904 9.66866 27.4257L13.3316 40.3279V11.4106L9.65234 13.3902Z" fill="#FF9901"/>
<path d="M45.5811 11.6484V38.7199L48.802 27.426C48.8129 27.0905 48.8184 26.754 48.8184 26.4166V13.3902L45.5811 11.6484Z" fill="#FF9901"/>
<path opacity="0.3" d="M48.8186 13.3906L41.7526 26.4171C41.7526 26.7545 41.7471 27.091 41.7362 27.4265L37.6279 41.8321C34.8341 46.677 30.7374 50.7418 25.7026 53.4946C26.8344 54.1133 28.013 54.6666 29.2354 55.1465C35.8966 52.5305 41.2719 47.7658 44.6938 41.8321L48.8022 27.4265C48.813 27.091 48.8185 26.7545 48.8185 26.4171V13.3906H48.8186Z" fill="#8F563D"/>
<path d="M51.2257 37.5005L58 41.23L52.4978 44.5618L52.6252 50.9927L35.3989 41.5089L51.2257 37.5005Z" fill="#97B0BE"/>
<path d="M6.2725 37.7769L0 41.2301L5.50218 44.5618L5.37485 50.9928L22.1302 41.7683L6.2725 37.7769Z" fill="#97B0BE"/>
<path d="M51.1347 41.7681H6.54088L4.10352 27.4263H53.5723L51.1347 41.7681Z" fill="#041620"/>
<path d="M29 11.6001L30.9719 15.8461L35.6194 16.4093L32.1906 19.5968L33.091 24.1909L29 21.9148L24.9091 24.1909L25.8095 19.5968L22.3807 16.4093L27.0282 15.8461L29 11.6001Z" fill="#041620"/>
<rect x="18" y="31.8999" width="22" height="4.64" rx="2.32" fill="#FFB801"/>
</svg>
