<svg width="37" height="41" viewBox="0 0 37 41" fill="none" xmlns="http://www.w3.org/2000/svg">
<path d="M24.3999 22.06H11.3944C10.6327 22.06 10.001 21.4283 10.001 20.6665C10.001 19.9048 10.6327 19.2731 11.3944 19.2731H24.3999C25.1616 19.2731 25.7933 19.9048 25.7933 20.6665C25.7933 21.4283 25.1616 22.06 24.3999 22.06ZM19.5321 29.4917H11.3944C10.6327 29.4917 10.001 28.86 10.001 28.0982C10.001 27.3365 10.6327 26.7048 11.3944 26.7048H19.5321C20.2939 26.7048 20.9256 27.3365 20.9256 28.0982C20.9256 28.86 20.2939 29.4917 19.5321 29.4917ZM22.542 10.5408H15.1103C13.3267 10.5408 10.001 10.5408 10.001 5.43156C10.001 0.322266 13.3267 0.322266 15.1103 0.322266H22.542C24.3256 0.322266 27.6513 0.322266 27.6513 5.43156C27.6513 7.21516 27.6513 10.5408 22.542 10.5408ZM15.1103 3.10915C13.2709 3.10915 12.7879 3.10915 12.7879 5.43156C12.7879 7.75396 13.2709 7.75396 15.1103 7.75396H22.542C24.8644 7.75396 24.8644 7.2709 24.8644 5.43156C24.8644 3.10915 24.3813 3.10915 22.542 3.10915H15.1103Z" fill="black"/>
<path d="M24.4 40.2677H13.2524C2.81088 40.2677 0.711426 35.4743 0.711426 27.7267V16.5792C0.711426 8.10708 3.777 4.48412 11.3202 4.09396C12.0633 4.0568 12.7508 4.63276 12.7879 5.41309C12.8251 6.19341 12.2306 6.82511 11.4688 6.86227C6.1923 7.15953 3.49831 8.73877 3.49831 16.5792V27.7267C3.49831 34.6011 4.8546 37.4808 13.2524 37.4808H24.4C32.7978 37.4808 34.154 34.6011 34.154 27.7267V16.5792C34.154 8.73877 31.4601 7.15953 26.1836 6.86227C25.815 6.83973 25.4702 6.67318 25.2234 6.39858C24.9766 6.12397 24.8476 5.76333 24.8644 5.39451C24.9016 4.63276 25.5704 4.03822 26.3322 4.07538C33.8754 4.48412 36.9409 8.10708 36.9409 16.5606V27.7082C36.9409 35.4743 34.8415 40.2677 24.4 40.2677Z" fill="black"/>
</svg>
