<svg width="39" height="41" viewBox="0 0 39 41" fill="none" xmlns="http://www.w3.org/2000/svg">
<mask id="path-1-inside-1_527_824" fill="white">
<path d="M19.5001 33.5056C19.8676 33.5056 20.2268 33.3966 20.5323 33.1925C20.8379 32.9883 21.076 32.6982 21.2166 32.3587C21.3573 32.0192 21.394 31.6456 21.3224 31.2852C21.2507 30.9248 21.0737 30.5938 20.8139 30.3339C20.554 30.0741 20.223 29.8971 19.8626 29.8255C19.5022 29.7538 19.1286 29.7906 18.7891 29.9312C18.4496 30.0718 18.1595 30.3099 17.9553 30.6155C17.7512 30.921 17.6422 31.2802 17.6422 31.6477C17.6422 32.1404 17.838 32.613 18.1864 32.9614C18.5348 33.3099 19.0074 33.5056 19.5001 33.5056ZM28.7897 33.5056C29.1572 33.5056 29.5164 33.3966 29.822 33.1925C30.1275 32.9883 30.3656 32.6982 30.5062 32.3587C30.6469 32.0192 30.6837 31.6456 30.612 31.2852C30.5403 30.9248 30.3633 30.5938 30.1035 30.3339C29.8437 30.0741 29.5126 29.8971 29.1522 29.8255C28.7918 29.7538 28.4182 29.7906 28.0788 29.9312C27.7393 30.0718 27.4491 30.3099 27.2449 30.6155C27.0408 30.921 26.9318 31.2802 26.9318 31.6477C26.9318 32.1404 27.1276 32.613 27.476 32.9614C27.8244 33.3099 28.297 33.5056 28.7897 33.5056ZM28.7897 26.0739C29.1572 26.0739 29.5164 25.9649 29.822 25.7608C30.1275 25.5566 30.3656 25.2665 30.5062 24.927C30.6469 24.5875 30.6837 24.2139 30.612 23.8535C30.5403 23.4931 30.3633 23.1621 30.1035 22.9022C29.8437 22.6424 29.5126 22.4655 29.1522 22.3938C28.7918 22.3221 28.4182 22.3589 28.0788 22.4995C27.7393 22.6401 27.4491 22.8782 27.2449 23.1838C27.0408 23.4893 26.9318 23.8485 26.9318 24.216C26.9318 24.7087 27.1276 25.1813 27.476 25.5297C27.8244 25.8782 28.297 26.0739 28.7897 26.0739ZM19.5001 26.0739C19.8676 26.0739 20.2268 25.9649 20.5323 25.7608C20.8379 25.5566 21.076 25.2665 21.2166 24.927C21.3573 24.5875 21.394 24.2139 21.3224 23.8535C21.2507 23.4931 21.0737 23.1621 20.8139 22.9022C20.554 22.6424 20.223 22.4655 19.8626 22.3938C19.5022 22.3221 19.1286 22.3589 18.7891 22.4995C18.4496 22.6401 18.1595 22.8782 17.9553 23.1838C17.7512 23.4893 17.6422 23.8485 17.6422 24.216C17.6422 24.7087 17.838 25.1813 18.1864 25.5297C18.5348 25.8782 19.0074 26.0739 19.5001 26.0739ZM32.5056 3.77883H30.6477V1.92091C30.6477 1.42816 30.4519 0.95559 30.1035 0.607161C29.7551 0.258733 29.2825 0.0629883 28.7897 0.0629883C28.297 0.0629883 27.8244 0.258733 27.476 0.607161C27.1276 0.95559 26.9318 1.42816 26.9318 1.92091V3.77883H12.0684V1.92091C12.0684 1.42816 11.8727 0.95559 11.5243 0.607161C11.1758 0.258733 10.7033 0.0629883 10.2105 0.0629883C9.71776 0.0629883 9.24519 0.258733 8.89677 0.607161C8.54834 0.95559 8.35259 1.42816 8.35259 1.92091V3.77883H6.49467C5.01641 3.77883 3.5987 4.36607 2.55342 5.41135C1.50813 6.45664 0.920898 7.87435 0.920898 9.3526V35.3635C0.920898 36.8418 1.50813 38.2595 2.55342 39.3048C3.5987 40.3501 5.01641 40.9373 6.49467 40.9373H32.5056C33.9839 40.9373 35.4016 40.3501 36.4468 39.3048C37.4921 38.2595 38.0794 36.8418 38.0794 35.3635V9.3526C38.0794 7.87435 37.4921 6.45664 36.4468 5.41135C35.4016 4.36607 33.9839 3.77883 32.5056 3.77883ZM34.3635 35.3635C34.3635 35.8563 34.1678 36.3289 33.8193 36.6773C33.4709 37.0257 32.9983 37.2215 32.5056 37.2215H6.49467C6.00192 37.2215 5.52935 37.0257 5.18092 36.6773C4.83249 36.3289 4.63675 35.8563 4.63675 35.3635V18.6422H34.3635V35.3635ZM34.3635 14.9264H4.63675V9.3526C4.63675 8.85985 4.83249 8.38728 5.18092 8.03885C5.52935 7.69043 6.00192 7.49468 6.49467 7.49468H8.35259V9.3526C8.35259 9.84536 8.54834 10.3179 8.89677 10.6664C9.24519 11.0148 9.71776 11.2105 10.2105 11.2105C10.7033 11.2105 11.1758 11.0148 11.5243 10.6664C11.8727 10.3179 12.0684 9.84536 12.0684 9.3526V7.49468H26.9318V9.3526C26.9318 9.84536 27.1276 10.3179 27.476 10.6664C27.8244 11.0148 28.297 11.2105 28.7897 11.2105C29.2825 11.2105 29.7551 11.0148 30.1035 10.6664C30.4519 10.3179 30.6477 9.84536 30.6477 9.3526V7.49468H32.5056C32.9983 7.49468 33.4709 7.69043 33.8193 8.03885C34.1678 8.38728 34.3635 8.85985 34.3635 9.3526V14.9264ZM10.2105 26.0739C10.578 26.0739 10.9372 25.9649 11.2427 25.7608C11.5483 25.5566 11.7864 25.2665 11.927 24.927C12.0676 24.5875 12.1044 24.2139 12.0327 23.8535C11.9611 23.4931 11.7841 23.1621 11.5243 22.9022C11.2644 22.6424 10.9334 22.4655 10.573 22.3938C10.2126 22.3221 9.83901 22.3589 9.49952 22.4995C9.16003 22.6401 8.86986 22.8782 8.66571 23.1838C8.46156 23.4893 8.35259 23.8485 8.35259 24.216C8.35259 24.7087 8.54834 25.1813 8.89677 25.5297C9.24519 25.8782 9.71776 26.0739 10.2105 26.0739ZM10.2105 33.5056C10.578 33.5056 10.9372 33.3966 11.2427 33.1925C11.5483 32.9883 11.7864 32.6982 11.927 32.3587C12.0676 32.0192 12.1044 31.6456 12.0327 31.2852C11.9611 30.9248 11.7841 30.5938 11.5243 30.3339C11.2644 30.0741 10.9334 29.8971 10.573 29.8255C10.2126 29.7538 9.83901 29.7906 9.49952 29.9312C9.16003 30.0718 8.86986 30.3099 8.66571 30.6155C8.46156 30.921 8.35259 31.2802 8.35259 31.6477C8.35259 32.1404 8.54834 32.613 8.89677 32.9614C9.24519 33.3099 9.71776 33.5056 10.2105 33.5056Z"/>
</mask>
<path d="M19.5001 33.5056C19.8676 33.5056 20.2268 33.3966 20.5323 33.1925C20.8379 32.9883 21.076 32.6982 21.2166 32.3587C21.3573 32.0192 21.394 31.6456 21.3224 31.2852C21.2507 30.9248 21.0737 30.5938 20.8139 30.3339C20.554 30.0741 20.223 29.8971 19.8626 29.8255C19.5022 29.7538 19.1286 29.7906 18.7891 29.9312C18.4496 30.0718 18.1595 30.3099 17.9553 30.6155C17.7512 30.921 17.6422 31.2802 17.6422 31.6477C17.6422 32.1404 17.838 32.613 18.1864 32.9614C18.5348 33.3099 19.0074 33.5056 19.5001 33.5056ZM28.7897 33.5056C29.1572 33.5056 29.5164 33.3966 29.822 33.1925C30.1275 32.9883 30.3656 32.6982 30.5062 32.3587C30.6469 32.0192 30.6837 31.6456 30.612 31.2852C30.5403 30.9248 30.3633 30.5938 30.1035 30.3339C29.8437 30.0741 29.5126 29.8971 29.1522 29.8255C28.7918 29.7538 28.4182 29.7906 28.0788 29.9312C27.7393 30.0718 27.4491 30.3099 27.2449 30.6155C27.0408 30.921 26.9318 31.2802 26.9318 31.6477C26.9318 32.1404 27.1276 32.613 27.476 32.9614C27.8244 33.3099 28.297 33.5056 28.7897 33.5056ZM28.7897 26.0739C29.1572 26.0739 29.5164 25.9649 29.822 25.7608C30.1275 25.5566 30.3656 25.2665 30.5062 24.927C30.6469 24.5875 30.6837 24.2139 30.612 23.8535C30.5403 23.4931 30.3633 23.1621 30.1035 22.9022C29.8437 22.6424 29.5126 22.4655 29.1522 22.3938C28.7918 22.3221 28.4182 22.3589 28.0788 22.4995C27.7393 22.6401 27.4491 22.8782 27.2449 23.1838C27.0408 23.4893 26.9318 23.8485 26.9318 24.216C26.9318 24.7087 27.1276 25.1813 27.476 25.5297C27.8244 25.8782 28.297 26.0739 28.7897 26.0739ZM19.5001 26.0739C19.8676 26.0739 20.2268 25.9649 20.5323 25.7608C20.8379 25.5566 21.076 25.2665 21.2166 24.927C21.3573 24.5875 21.394 24.2139 21.3224 23.8535C21.2507 23.4931 21.0737 23.1621 20.8139 22.9022C20.554 22.6424 20.223 22.4655 19.8626 22.3938C19.5022 22.3221 19.1286 22.3589 18.7891 22.4995C18.4496 22.6401 18.1595 22.8782 17.9553 23.1838C17.7512 23.4893 17.6422 23.8485 17.6422 24.216C17.6422 24.7087 17.838 25.1813 18.1864 25.5297C18.5348 25.8782 19.0074 26.0739 19.5001 26.0739ZM32.5056 3.77883H30.6477V1.92091C30.6477 1.42816 30.4519 0.95559 30.1035 0.607161C29.7551 0.258733 29.2825 0.0629883 28.7897 0.0629883C28.297 0.0629883 27.8244 0.258733 27.476 0.607161C27.1276 0.95559 26.9318 1.42816 26.9318 1.92091V3.77883H12.0684V1.92091C12.0684 1.42816 11.8727 0.95559 11.5243 0.607161C11.1758 0.258733 10.7033 0.0629883 10.2105 0.0629883C9.71776 0.0629883 9.24519 0.258733 8.89677 0.607161C8.54834 0.95559 8.35259 1.42816 8.35259 1.92091V3.77883H6.49467C5.01641 3.77883 3.5987 4.36607 2.55342 5.41135C1.50813 6.45664 0.920898 7.87435 0.920898 9.3526V35.3635C0.920898 36.8418 1.50813 38.2595 2.55342 39.3048C3.5987 40.3501 5.01641 40.9373 6.49467 40.9373H32.5056C33.9839 40.9373 35.4016 40.3501 36.4468 39.3048C37.4921 38.2595 38.0794 36.8418 38.0794 35.3635V9.3526C38.0794 7.87435 37.4921 6.45664 36.4468 5.41135C35.4016 4.36607 33.9839 3.77883 32.5056 3.77883ZM34.3635 35.3635C34.3635 35.8563 34.1678 36.3289 33.8193 36.6773C33.4709 37.0257 32.9983 37.2215 32.5056 37.2215H6.49467C6.00192 37.2215 5.52935 37.0257 5.18092 36.6773C4.83249 36.3289 4.63675 35.8563 4.63675 35.3635V18.6422H34.3635V35.3635ZM34.3635 14.9264H4.63675V9.3526C4.63675 8.85985 4.83249 8.38728 5.18092 8.03885C5.52935 7.69043 6.00192 7.49468 6.49467 7.49468H8.35259V9.3526C8.35259 9.84536 8.54834 10.3179 8.89677 10.6664C9.24519 11.0148 9.71776 11.2105 10.2105 11.2105C10.7033 11.2105 11.1758 11.0148 11.5243 10.6664C11.8727 10.3179 12.0684 9.84536 12.0684 9.3526V7.49468H26.9318V9.3526C26.9318 9.84536 27.1276 10.3179 27.476 10.6664C27.8244 11.0148 28.297 11.2105 28.7897 11.2105C29.2825 11.2105 29.7551 11.0148 30.1035 10.6664C30.4519 10.3179 30.6477 9.84536 30.6477 9.3526V7.49468H32.5056C32.9983 7.49468 33.4709 7.69043 33.8193 8.03885C34.1678 8.38728 34.3635 8.85985 34.3635 9.3526V14.9264ZM10.2105 26.0739C10.578 26.0739 10.9372 25.9649 11.2427 25.7608C11.5483 25.5566 11.7864 25.2665 11.927 24.927C12.0676 24.5875 12.1044 24.2139 12.0327 23.8535C11.9611 23.4931 11.7841 23.1621 11.5243 22.9022C11.2644 22.6424 10.9334 22.4655 10.573 22.3938C10.2126 22.3221 9.83901 22.3589 9.49952 22.4995C9.16003 22.6401 8.86986 22.8782 8.66571 23.1838C8.46156 23.4893 8.35259 23.8485 8.35259 24.216C8.35259 24.7087 8.54834 25.1813 8.89677 25.5297C9.24519 25.8782 9.71776 26.0739 10.2105 26.0739ZM10.2105 33.5056C10.578 33.5056 10.9372 33.3966 11.2427 33.1925C11.5483 32.9883 11.7864 32.6982 11.927 32.3587C12.0676 32.0192 12.1044 31.6456 12.0327 31.2852C11.9611 30.9248 11.7841 30.5938 11.5243 30.3339C11.2644 30.0741 10.9334 29.8971 10.573 29.8255C10.2126 29.7538 9.83901 29.7906 9.49952 29.9312C9.16003 30.0718 8.86986 30.3099 8.66571 30.6155C8.46156 30.921 8.35259 31.2802 8.35259 31.6477C8.35259 32.1404 8.54834 32.613 8.89677 32.9614C9.24519 33.3099 9.71776 33.5056 10.2105 33.5056Z" fill="black" stroke="#FFB801" stroke-width="1.2" mask="url(#path-1-inside-1_527_824)"/>
</svg>
