<svg width="146" height="156" viewBox="0 0 146 156" fill="none" xmlns="http://www.w3.org/2000/svg">
<path fill-rule="evenodd" clip-rule="evenodd" d="M143.653 18.6759L131.78 11.8784C130.468 11.535 129.364 11.947 128.19 12.565C104.927 25.8854 81.6634 39.2058 58.4001 52.5949L56.053 53.8995L53.775 55.2041C51.9112 56.3713 50.6686 57.8132 49.5641 59.6671L49.3571 60.0104C48.3906 61.7956 47.8384 63.5122 47.7693 65.5034V67.0139V126.887V127.024V127.162V127.299V127.436V127.574V127.711V127.848V127.986L47.8384 128.123L47.9074 128.26L47.9764 128.398L48.0455 128.535L48.1145 128.672L48.1835 128.81L48.2526 128.947H48.3216L48.3906 129.084L48.4597 129.222L48.5287 129.359L48.5977 129.496L48.6667 129.565L48.7358 129.634L48.8048 129.702L48.8738 129.771L48.9429 129.84L60.8162 136.637L60.7471 136.568V136.5L60.6781 136.431L60.6091 136.363L60.54 136.294L60.471 136.157L60.402 136.019L60.3329 135.882L60.2639 135.745L60.1949 135.607L60.0568 135.539L59.9878 135.401L59.9188 135.264L59.8497 135.127L59.7807 134.989V134.852L59.7117 134.715V134.577V134.44V134.303V134.165V134.028V133.891V133.753V133.616V73.7428V72.2322V71.8889C59.7117 71.4083 59.7807 70.9277 59.9188 70.447C60.6091 67.3572 62.3348 64.5421 64.8199 62.5509L65.0961 62.3449L65.3722 62.1389L65.6483 61.9329L67.9954 60.6284L70.3424 59.3238L72.6894 58.0192C91.2587 47.3766 109.897 36.6653 128.466 26.0227L130.813 24.7181L133.16 23.4136L135.507 22.109L137.854 20.8044L140.201 19.4998C141.237 18.7446 142.272 18.3326 143.653 18.6759Z" fill="#BCBEC0"/>
<path fill-rule="evenodd" clip-rule="evenodd" d="M111.968 110.752C126.326 103.336 131.918 109.79 141.099 114.871C141.168 107.387 141.375 100.384 139.718 93.9294L139.994 93.792C143.308 91.9382 146 87.2691 146 83.4927C146 68.7304 146 37.5579 146 22.7955C146 19.0191 143.308 17.4399 139.994 19.3624C115.212 33.5755 90.4303 47.7885 65.6483 62.0702C62.3348 63.9241 59.6426 68.5931 59.6426 72.3695V73.8801V133.753C59.6426 135.264 60.402 136.568 61.7136 137.324C63.0251 138.079 64.5438 138.079 65.8554 137.324L111.968 110.752Z" fill="#E6E7E8"/>
<path fill-rule="evenodd" clip-rule="evenodd" d="M131.573 72.8501L74.07 105.808V111.438L131.573 78.4804V72.8501Z" fill="#5C5D60"/>
<path fill-rule="evenodd" clip-rule="evenodd" d="M127.224 59.1865L74.07 89.6724V95.3027L127.224 64.8168V59.1865Z" fill="#5C5D60"/>
<path fill-rule="evenodd" clip-rule="evenodd" d="M131.573 41.5405L74.1389 74.4983V80.1286L131.573 47.1708V41.5405Z" fill="#5C5D60"/>
<path fill-rule="evenodd" clip-rule="evenodd" d="M23.0562 140.276C23.4013 134.715 24.3678 130.252 25.8174 124.484L22.3659 126.475C19.8808 127.917 17.8098 126.75 17.8098 123.866V65.0228C17.8098 62.139 19.8117 58.6372 22.3659 57.264C46.7337 43.2569 71.0325 29.3185 95.4004 15.3801C97.8855 13.9382 99.9564 15.1055 99.9564 17.9893C99.9564 31.7904 99.9564 62.9629 99.9564 76.764C99.9564 78.2059 99.4732 79.7164 98.5758 81.227C97.6784 82.7375 96.5739 83.9048 95.3314 84.5914C72.7583 97.0192 34.9295 115.901 23.0562 140.276Z" fill="#E6EAEA"/>
<path fill-rule="evenodd" clip-rule="evenodd" d="M19.7428 132.174L13.1158 128.329V64.4734C13.1849 62.2076 13.8752 60.2164 14.9797 58.2938L15.1868 57.9505C16.2913 56.234 17.3957 54.9294 19.1215 53.8308L19.4667 53.5562L21.9518 52.1829L24.4369 50.741L26.922 49.2991C49.9092 36.116 72.8274 22.9329 95.8147 9.74982L98.2998 8.30792L98.6449 8.10193C99.9565 7.48397 101.199 7.14066 102.58 7.75862L89.4638 0.205803C88.0832 -0.412155 86.8407 -0.0688448 85.5291 0.549113L85.1839 0.755099C59.7116 15.4488 34.2392 30.0051 8.83593 44.6301C5.52246 46.484 4.14184 47.1706 2.07092 50.3977L1.86383 50.741C0.759338 52.7322 0.0690307 54.6548 0 56.9206V121.12V121.463V121.806L0.0690307 122.149L0.138061 122.493L0.207092 122.767L0.276123 123.042L0.345154 123.317L0.483215 123.591L0.621277 123.866L0.759338 124.072L0.897399 124.278L1.03546 124.484L1.24255 124.69L1.44965 124.827L1.65674 124.965L6.0747 127.505V127.711L5.93664 128.466L5.79858 129.222L5.72955 129.977L5.66052 130.732L5.59149 131.488L5.52246 132.449L5.45343 133.204L5.3844 133.959L5.31537 134.715L5.24634 135.47L5.17731 136.225V136.98V137.736V138.491V139.178V139.933V140.62V141.306V141.993V142.679V143.366V144.121V144.808V145.563V146.25V147.005V147.76V148.516L18.2931 156.068V155.313V154.489V153.734V152.979V152.292V151.537V150.85V150.164V149.477V148.722V148.035V147.348V146.662V145.975V145.22V144.465V143.709L18.3622 142.954L18.4312 142.199L18.5002 141.443L18.5693 140.688L18.6383 139.933L18.7073 139.178L18.7764 138.422L18.8454 137.667L18.9144 136.912L19.0525 136.157L19.1905 135.401L19.3286 134.577L19.4667 133.753L19.6047 132.929L19.7428 132.174Z" fill="#BCBEC0"/>
<path fill-rule="evenodd" clip-rule="evenodd" d="M19.7428 132.174L15.2558 132.861L3.86569 126.338L6.07468 127.642V127.848L5.93661 128.604L5.86758 129.428L5.72952 130.183L5.66049 130.938L5.59146 131.694L5.52243 132.449L5.4534 133.204L5.38437 133.959L5.31534 134.646V135.401L5.24631 136.157V136.912L5.17728 137.598V138.354V139.04L5.10825 139.796V140.482V141.238V141.924V142.611V143.366V144.121V144.808V145.563V146.25L5.17728 147.005V147.692V148.447L18.2931 156V155.245V154.489L18.2241 153.803V153.047V152.361V151.605V150.919V150.164V149.477V148.722V148.035V147.28L18.2931 146.593V145.838V145.151V144.396L18.3621 143.641L18.4312 142.954V142.199L18.5002 141.444L18.5692 140.757L18.6383 140.002L18.7073 139.246L18.7763 138.491L18.8454 137.667L18.9834 136.912L19.0525 136.157L19.1905 135.401L19.3286 134.577L19.4666 133.753L19.6047 132.929L19.7428 132.174Z" fill="#BBCBCF"/>
<path fill-rule="evenodd" clip-rule="evenodd" d="M15.2558 57.8819L2.13995 50.3291H2.07092L1.86383 50.7411L1.65674 51.0844L1.44965 51.4964L1.31158 51.8397L1.10449 52.2516L0.96643 52.6636L0.759338 53.0069L0.621277 53.4189L0.552246 53.8309L0.414184 54.2428L0.276123 54.5861L0.207092 54.9981L0.138061 55.4101V55.8221L0.0690307 56.1654L0 56.5773V56.9207V121.12V121.532V121.875L0.0690307 122.218L0.138061 122.562L0.207092 122.836L0.276123 123.111L0.414184 123.385L0.483215 123.66L0.621277 123.935L0.759338 124.141L0.897399 124.347L1.10449 124.553L1.24255 124.759L1.44965 124.965L1.65674 125.102L6.0747 127.642V127.848L5.93664 128.604L5.86761 129.428L5.72955 130.183L5.66052 130.938L5.59149 131.694L5.52246 132.449L5.45343 133.204L5.3844 133.959L5.31537 134.646V135.401L5.24634 136.157V136.843L5.17731 137.598V138.354V139.04L5.10827 139.796V140.482V141.238V141.924V142.611V143.366V144.121V144.808V145.563V146.25L5.17731 147.005V147.692V148.447L18.2931 156V155.245V154.489L18.2241 153.803V153.047V152.361V151.606V150.919V150.164V149.477V148.722V148.035V147.28L18.2931 146.593V145.838V145.151V144.396L18.3622 143.641L18.4312 142.954V142.199L18.5002 141.444L18.5693 140.757L18.6383 140.002L18.7073 139.246L18.7764 138.491L18.8454 137.667L18.9835 136.912L19.0525 136.157L19.1905 135.401L19.3286 134.577L19.4667 133.753L19.6047 132.929L19.7428 132.174L13.1158 128.329V64.4735L13.1849 64.1302V63.7182V63.3062L13.2539 62.9629L13.3229 62.5509L13.461 62.139L13.53 61.727L13.6681 61.3837L13.7371 60.9717L13.8752 60.5597L14.0823 60.1478L14.2203 59.8045L14.4274 59.3925L14.5655 59.0492L14.7726 58.6372L14.9797 58.2939L15.2558 57.8819Z" fill="#9D9FA2"/>
<path fill-rule="evenodd" clip-rule="evenodd" d="M104.513 76.8323C104.513 61.04 104.513 27.8077 104.513 12.0154C104.513 8.033 101.682 6.38512 98.1617 8.37631C71.93 23.4133 45.6983 38.5189 19.3976 53.5559C16.0151 55.5471 13.1158 60.4908 13.1158 64.4731V128.672C13.1158 132.654 15.9461 134.302 19.4666 132.311L19.7428 132.105C18.017 140.894 18.1551 148.103 18.2931 155.931C20.8473 151.605 23.3324 147.279 25.8865 142.954C41.8326 115.214 73.2416 101.276 98.0236 87.8182C99.8184 86.8569 101.337 85.2777 102.649 83.1492C103.891 81.0207 104.513 78.8922 104.513 76.8323Z" fill="white"/>
<path fill-rule="evenodd" clip-rule="evenodd" d="M28.4406 99.8343L67.581 77.3818V83.3554L28.4406 105.808V99.8343Z" fill="#5C5D60"/>
<path fill-rule="evenodd" clip-rule="evenodd" d="M28.4406 82.8061L89.2567 47.9258V53.8994L28.4406 88.7797V82.8061Z" fill="#5C5D60"/>
<path fill-rule="evenodd" clip-rule="evenodd" d="M28.4406 66.7394L82.1465 35.9102V41.8837L28.4406 72.713V66.7394Z" fill="#5C5D60"/>
</svg>
