<svg width="27" height="16" viewBox="0 0 27 16" fill="none" xmlns="http://www.w3.org/2000/svg">
<path d="M25.8663 13.121C25.7133 12.806 25.5153 12.482 25.2543 12.131C24.6603 11.321 23.9493 10.637 23.1573 9.899C22.9233 9.674 22.6893 9.449 22.4643 9.215L22.1223 8.873L22.2123 8.747C22.2753 8.657 22.3293 8.558 22.4013 8.477L23.1933 7.424C23.6073 6.884 24.0123 6.335 24.4173 5.795C25.0383 4.958 25.4793 4.229 25.8033 3.5C25.9473 3.167 26.1003 2.771 26.0553 2.303C26.0013 1.691 25.6863 1.268 25.1373 1.079C24.8673 0.988995 24.5703 0.934995 24.2913 0.934995C22.9503 0.925995 21.5193 0.925995 20.1063 0.961995C19.3503 0.979995 18.7923 1.358 18.5043 2.06C18.3153 2.51 18.1263 2.951 17.9193 3.392C17.4423 4.4 16.8483 5.372 16.1463 6.281C16.1013 6.344 16.0473 6.407 15.9933 6.461C16.0023 5.552 16.0203 4.643 16.0473 3.734L16.0563 3.464C16.0653 3.032 16.0833 2.582 16.0113 2.132C15.8853 1.322 15.4263 0.781995 14.6883 0.565995C14.2923 0.448995 13.9053 0.376995 13.5453 0.358995C12.7263 0.322995 11.9253 0.313995 11.1693 0.313995H11.1603C10.5933 0.313995 10.0893 0.376995 9.63029 0.520995C9.00929 0.700995 8.55029 1.016 8.23529 1.484C8.01029 1.799 7.95629 2.186 8.09129 2.519C8.21729 2.843 8.49629 3.059 8.87429 3.14C9.01829 3.167 9.17129 3.23 9.33329 3.311L9.36029 3.392C9.40529 3.527 9.45029 3.653 9.45929 3.77C9.49529 4.382 9.52229 5.03 9.53129 5.678C9.54029 5.966 9.51329 6.263 9.46829 6.569C9.38729 6.47 9.30629 6.38 9.22529 6.272C8.30729 5.012 7.53329 3.617 6.91229 2.105C6.60629 1.367 5.88629 0.889995 5.07629 0.889995H4.25729C3.42929 0.889995 2.61029 0.889995 1.78229 0.889995C1.58429 0.889995 1.37729 0.907995 1.15229 0.934995C0.558293 1.016 0.0992935 1.475 0.0182935 2.078C-0.0267065 2.366 0.0272935 2.672 0.180294 2.987C1.18829 5.102 2.23229 6.983 3.36629 8.747C4.36529 10.295 5.27429 11.483 6.21029 12.473C7.72229 14.057 9.59429 14.894 11.7813 14.957C12.3843 14.975 12.9873 14.975 13.5903 14.975H14.2563C14.4183 14.984 14.5353 14.966 14.6703 14.948C15.4263 14.858 15.9483 14.282 15.9573 13.517C15.9573 13.301 15.9753 13.121 16.0023 12.968C16.0203 12.851 16.0563 12.725 16.1193 12.59L16.2003 12.662C16.3353 12.779 16.4793 12.905 16.6053 13.04C16.7763 13.22 16.9383 13.4 17.1003 13.58C17.3613 13.877 17.6403 14.174 17.9283 14.462C18.7743 15.29 19.6833 15.695 20.6913 15.695C20.7453 15.695 20.8083 15.695 20.8623 15.695C21.5733 15.659 22.2933 15.659 22.9953 15.659C23.3103 15.659 23.6253 15.659 23.9403 15.65C24.3093 15.641 24.6513 15.569 24.9753 15.425C25.4523 15.209 25.7853 14.876 25.9383 14.462C26.1183 14.039 26.0823 13.58 25.8663 13.121ZM14.1753 12.77C14.1663 12.887 14.1573 12.995 14.1573 13.112C13.8693 13.112 13.5903 13.103 13.3023 13.103C12.6183 13.103 11.9163 13.094 11.2233 13.058C10.1613 12.995 9.16229 12.581 8.26229 11.825C7.46129 11.15 6.81329 10.349 6.29129 9.656C5.35529 8.423 4.47329 7.046 3.57329 5.426C3.21329 4.769 2.86229 4.103 2.52029 3.437L2.16929 2.762H2.75429C3.50129 2.762 4.24829 2.762 4.98629 2.762C5.13029 2.762 5.16629 2.798 5.21129 2.915C5.86829 4.49 6.69629 5.984 7.66829 7.343C7.99229 7.775 8.28029 8.099 8.59529 8.35999C8.95529 8.657 9.32429 8.81 9.70229 8.792C10.3593 8.783 10.8813 8.414 11.1063 7.793C11.2593 7.37 11.3403 6.911 11.3853 6.299C11.4303 5.579 11.4213 4.796 11.3583 3.842C11.3403 3.545 11.2863 3.248 11.2143 2.96C11.1513 2.735 11.0703 2.501 10.9173 2.294C11.5113 2.204 12.1593 2.177 12.9513 2.195C13.2573 2.204 13.6623 2.231 14.0673 2.33C14.1393 2.348 14.1393 2.357 14.1483 2.393L14.1573 2.519C14.1663 2.636 14.1843 2.744 14.1753 2.861C14.1663 3.536 14.1483 4.22 14.1303 4.895L14.1033 6.029C14.0943 6.497 14.0943 6.992 14.2293 7.487C14.3103 7.775 14.4273 8.018 14.5893 8.225C15.0933 8.846 15.8493 8.963 16.5333 8.531C16.9023 8.297 17.2263 7.982 17.5863 7.505C18.5223 6.29 19.3143 4.931 19.9353 3.482C20.0253 3.275 20.1063 3.068 20.2233 2.843C21.1593 2.843 22.1043 2.834 23.0403 2.834L24.0303 2.825C24.0033 2.888 23.9853 2.942 23.9583 2.996C23.6883 3.545 23.3553 4.085 22.9233 4.652C22.5093 5.192 22.0953 5.723 21.6723 6.245L21.0423 7.046C20.7453 7.424 20.5473 7.748 20.4033 8.072C20.0883 8.801 20.1963 9.512 20.7093 10.133C20.9973 10.484 21.3393 10.79 21.6903 11.114C22.3293 11.699 23.0493 12.365 23.6343 13.112C23.7693 13.283 23.8863 13.463 24.0033 13.652L24.0753 13.76C24.0123 13.769 23.9583 13.778 23.9043 13.787C23.5353 13.796 23.1753 13.796 22.8153 13.796C22.1853 13.796 21.5373 13.805 20.8983 13.832C20.2953 13.868 19.8183 13.67 19.3593 13.211C19.0353 12.887 18.7203 12.554 18.4143 12.221C18.2523 12.041 18.0903 11.87 17.9193 11.69C17.6673 11.429 17.3613 11.132 16.9743 10.916C16.6863 10.763 16.3893 10.682 16.1013 10.682C15.6513 10.682 15.2283 10.871 14.8683 11.24C14.4543 11.618 14.2293 12.131 14.1753 12.77Z" fill="#ffb801"/>
</svg>
