<svg width="61" height="68" viewBox="0 0 61 68" fill="none" xmlns="http://www.w3.org/2000/svg">
<path d="M60 31.4666C59.9837 31.3785 59.9837 31.2881 60 31.2V30.5666C60 29.8 59.8 29.0333 59.6666 28.2666C59.6476 28.0894 59.6476 27.9106 59.6666 27.7333C59.5 26.9 59.2666 26.1 59.0333 25.3C57.6081 20.6991 55.0852 16.5138 51.6823 13.1051C48.2794 9.69635 44.0984 7.16637 39.5 5.73329H39.2333C38.5 5.49996 37.7333 5.29996 36.9666 5.13329H36.3666C35.7607 5.01185 35.1487 4.92283 34.5333 4.86663H33.7333V3.99996C33.7333 3.1159 33.3821 2.26806 32.757 1.64294C32.1319 1.01782 31.284 0.666626 30.4 0.666626C29.5159 0.666626 28.6681 1.01782 28.0429 1.64294C27.4178 2.26806 27.0666 3.1159 27.0666 3.99996V4.19996C25.9448 4.33485 24.8318 4.53519 23.7333 4.79996C23.0331 4.93065 22.3426 5.10884 21.6666 5.33329H21.2333C20.4 5.59996 19.6333 5.89996 18.8333 6.19996C14.7173 7.82966 11.0166 10.3569 8.0008 13.5976C4.98498 16.8383 2.72995 20.7109 1.39997 24.9333C1.38845 25.0218 1.38845 25.1114 1.39997 25.2C1.14231 25.9869 0.930843 26.7883 0.766639 27.6V28.1333C0.588861 28.9333 0.455527 29.7666 0.366638 30.6333C0.366638 30.6333 0.366638 30.8666 0.366638 31C0.366638 31.1333 0.366638 31.2 0.366638 31.3C0.366638 31.4 0.366638 31.3 0.366638 31.4666C0.366638 32.3 0.366638 33.1333 0.366638 34C0.366638 34.884 0.717828 35.7319 1.34295 36.357C1.96807 36.9821 2.81592 37.3333 3.69997 37.3333H27.0333V57.3333C27.0333 58.2174 26.6821 59.0652 26.057 59.6903C25.4319 60.3154 24.584 60.6666 23.7 60.6666C22.8159 60.6666 21.9681 60.3154 21.3429 59.6903C20.7178 59.0652 20.3666 58.2174 20.3666 57.3333C20.3666 56.4492 20.0155 55.6014 19.3903 54.9763C18.7652 54.3512 17.9174 54 17.0333 54C16.1492 54 15.3014 54.3512 14.6763 54.9763C14.0512 55.6014 13.7 56.4492 13.7 57.3333C13.7 59.9855 14.7535 62.529 16.6289 64.4044C18.5043 66.2797 21.0478 67.3333 23.7 67.3333C26.3521 67.3333 28.8957 66.2797 30.771 64.4044C32.6464 62.529 33.7 59.9855 33.7 57.3333V37.3333H57.0333C57.9174 37.3333 58.7652 36.9821 59.3903 36.357C60.0154 35.7319 60.3666 34.884 60.3666 34C60 33.1333 60 32.3 60 31.4666ZM16.6666 30.6666H6.9333C6.9333 30.6666 6.9333 30.4333 6.9333 30.3C6.9333 30.1666 6.9333 29.3666 7.19997 28.9333C7.46664 28.5 7.19997 28.5 7.19997 28.3C7.19997 28.1 7.46664 27.2333 7.63331 26.7V26.4333C8.70012 23.4103 10.3784 20.6396 12.5635 18.294C14.7485 15.9483 17.3935 14.0781 20.3333 12.8C18.1 18.5025 16.8598 24.5454 16.6666 30.6666ZM23.3333 30.6666C23.9666 17.6333 28.1333 10.6666 30 10.6666C31.8666 10.6666 35.9666 17.6333 36.6666 30.6666H23.3333ZM43.3333 30.6666C43.1401 24.5454 41.9 18.5025 39.6666 12.8C42.5669 14.1189 45.1663 16.0179 47.3046 18.3798C49.443 20.7418 51.075 23.5166 52.1 26.5333C52.3017 27.1117 52.4687 27.7016 52.6 28.3C52.5849 28.4663 52.5849 28.6336 52.6 28.8C52.6 29.2666 52.8 29.7666 52.8666 30.2333C52.9333 30.7 52.8666 30.4666 52.8666 30.6L43.3333 30.6666Z" fill="black"/>
</svg>
