<svg width="36" height="42" viewBox="0 0 36 42" fill="none" xmlns="http://www.w3.org/2000/svg">
<path d="M19.0292 23.3125L18.6741 23.0833C18.2917 22.9264 17.8712 22.8862 17.4659 22.9677C17.0606 23.0493 16.6886 23.2491 16.3972 23.5417C16.1956 23.7265 16.0385 23.9544 15.9376 24.2083C15.8279 24.4652 15.7711 24.7416 15.7705 25.0208C15.7738 25.2931 15.8306 25.562 15.9376 25.8125C16.1621 26.3131 16.5637 26.7136 17.0657 26.9375C17.3168 27.0442 17.5865 27.1009 17.8595 27.1042C18.139 27.0989 18.4151 27.0425 18.6741 26.9375C18.9248 26.8297 19.1519 26.674 19.3426 26.4792C19.7317 26.0888 19.95 25.5608 19.95 25.0104C19.95 24.46 19.7317 23.932 19.3426 23.5417L19.0292 23.3125ZM17.8595 8.49999C16.8628 8.4888 15.8803 8.73646 15.0086 9.21861C14.137 9.70077 13.4061 10.4008 12.8878 11.25C12.7367 11.4871 12.6352 11.7523 12.5895 12.0295C12.5437 12.3068 12.5547 12.5904 12.6218 12.8633C12.6888 13.1362 12.8105 13.3928 12.9795 13.6176C13.1485 13.8424 13.3614 14.0307 13.6053 14.1713C13.8492 14.3119 14.1191 14.4019 14.3988 14.4358C14.6785 14.4697 14.9621 14.4468 15.2327 14.3685C15.5033 14.2902 15.7552 14.1581 15.9733 13.9802C16.1913 13.8023 16.3711 13.5823 16.5017 13.3333C16.6558 13.1196 16.8602 12.947 17.097 12.8308C17.3338 12.7145 17.5957 12.6581 17.8595 12.6667C18.275 12.6667 18.6735 12.8313 18.9673 13.1243C19.2611 13.4173 19.4261 13.8148 19.4261 14.2292C19.4261 14.6436 19.2611 15.041 18.9673 15.334C18.6735 15.627 18.275 15.7917 17.8595 15.7917C17.3054 15.7917 16.7741 16.0111 16.3824 16.4018C15.9906 16.7926 15.7705 17.3225 15.7705 17.875C15.7705 18.4275 15.9906 18.9574 16.3824 19.3481C16.7741 19.7388 17.3054 19.9583 17.8595 19.9583C19.383 19.9583 20.8441 19.3547 21.9215 18.2803C22.9988 17.2059 23.604 15.7486 23.604 14.2292C23.604 12.7097 22.9988 11.2524 21.9215 10.178C20.8441 9.10359 19.383 8.49999 17.8595 8.49999ZM35.7824 16.1667C35.5054 13.1138 34.4386 10.1848 32.6863 7.66646C30.9339 5.14808 28.5561 3.12649 25.7855 1.79946C23.0148 0.472431 19.9462 -0.114578 16.8799 0.095859C13.8135 0.306296 10.8545 1.30697 8.29219 2.99999C6.09714 4.46383 4.25442 6.39436 2.89639 8.65289C1.53836 10.9114 0.698739 13.4419 0.437844 16.0625C0.181914 18.6659 0.510275 21.2936 1.3991 23.7547C2.28793 26.2159 3.71494 28.4489 5.57659 30.2917L16.6479 41.3542C16.8421 41.5494 17.0731 41.7044 17.3277 41.8102C17.5822 41.9159 17.8553 41.9704 18.131 41.9704C18.4068 41.9704 18.6798 41.9159 18.9344 41.8102C19.1889 41.7044 19.42 41.5494 19.6141 41.3542L30.6437 30.2917C32.5053 28.4489 33.9323 26.2159 34.8211 23.7547C35.71 21.2936 36.0383 18.6659 35.7824 16.0625V16.1667ZM27.7192 27.3542L18.1101 36.9375L8.50108 27.3542C7.08498 25.9418 6.00023 24.234 5.32481 22.3537C4.64939 20.4733 4.40008 18.4671 4.5948 16.4792C4.79078 14.4606 5.43405 12.5107 6.47811 10.7705C7.52217 9.03025 8.94092 7.54313 10.6318 6.41665C12.848 4.9484 15.4495 4.16519 18.1101 4.16519C20.7708 4.16519 23.3722 4.9484 25.5885 6.41665C27.2742 7.53877 28.6898 9.01932 29.7336 10.7519C30.7774 12.4846 31.4235 14.4262 31.6254 16.4375C31.8265 18.4321 31.5803 20.4464 30.9047 22.3345C30.2291 24.2225 29.141 25.9371 27.7192 27.3542Z" fill="#9D9FA2"/>
</svg>
