<svg width="34" height="34" viewBox="0 0 34 34" fill="none" xmlns="http://www.w3.org/2000/svg">
<path d="M29.3498 18.6667C28.9831 18.6667 28.5998 18.55 28.2331 18.4667C27.4912 18.3008 26.7617 18.0836 26.0498 17.8167C25.2766 17.5354 24.4267 17.55 23.6636 17.8577C22.9006 18.1654 22.2783 18.7444 21.9165 19.4833L21.5498 20.25C19.9312 19.332 18.4358 18.2119 17.0998 16.9167C15.8046 15.5806 14.6845 14.0853 13.7665 12.4667L14.5331 12.1167C15.2721 11.7549 15.8511 11.1326 16.1588 10.3695C16.4665 9.60643 16.4811 8.75653 16.1998 7.98334C15.9351 7.26506 15.718 6.53014 15.5498 5.78334C15.4665 5.41668 15.3998 5.03334 15.3498 4.66668C15.1474 3.49271 14.5325 2.42958 13.6158 1.66874C12.6992 0.907905 11.541 0.499358 10.3498 0.516677H5.33313C4.62854 0.515754 3.93172 0.663757 3.28833 0.950983C2.64494 1.23821 2.06952 1.65817 1.5998 2.18334C1.12033 2.72277 0.763324 3.35959 0.553304 4.05007C0.343284 4.74055 0.28523 5.4683 0.383132 6.18334C1.28911 13.1202 4.45848 19.5644 9.3998 24.5167C14.352 29.458 20.7962 32.6274 27.7331 33.5333C27.9495 33.5499 28.1668 33.5499 28.3831 33.5333C29.6122 33.5351 30.7988 33.0842 31.7165 32.2667C32.2416 31.797 32.6616 31.2215 32.9488 30.5781C33.236 29.9348 33.3841 29.2379 33.3831 28.5333V23.5333C33.3741 22.3817 32.9679 21.2685 32.233 20.3818C31.4982 19.4951 30.4797 18.8893 29.3498 18.6667ZM30.1665 28.6667C30.1659 28.8992 30.1167 29.1291 30.022 29.3415C29.9272 29.554 29.7891 29.7442 29.6165 29.9C29.4338 30.0664 29.2164 30.1902 28.98 30.2622C28.7437 30.3343 28.4942 30.3529 28.2498 30.3167C22.0303 29.5044 16.2502 26.67 11.7998 22.25C7.34558 17.7958 4.48651 11.9956 3.66647 5.75001C3.63026 5.50557 3.64886 5.25613 3.72092 5.01976C3.79299 4.78339 3.91671 4.56601 4.08313 4.38334C4.24083 4.2086 4.43376 4.06924 4.64921 3.97444C4.86466 3.87964 5.09775 3.83155 5.33313 3.83334H10.3331C10.7184 3.82393 11.095 3.94832 11.3989 4.18534C11.7028 4.42237 11.9151 4.75737 11.9998 5.13334C11.9998 5.58334 12.1498 6.05001 12.2498 6.50001C12.4424 7.37312 12.6987 8.23096 13.0165 9.06668L10.6831 10.1667C10.2821 10.3508 9.9704 10.6864 9.81647 11.1C9.64977 11.5058 9.64977 11.9609 9.81647 12.3667C12.2151 17.5046 16.3452 21.6347 21.4831 24.0333C21.8889 24.2 22.344 24.2 22.7498 24.0333C23.1634 23.8794 23.499 23.5677 23.6831 23.1667L24.7331 20.8333C25.593 21.1469 26.4727 21.403 27.3665 21.6C27.7998 21.7 28.2665 21.7833 28.7165 21.85C29.0924 21.9347 29.4274 22.147 29.6645 22.4509C29.9015 22.7548 30.0259 23.1314 30.0165 23.5167L30.1665 28.6667ZM20.3331 0.333344C19.9498 0.333344 19.5498 0.333344 19.1665 0.333344C18.7244 0.370916 18.3154 0.582544 18.0294 0.921672C17.7435 1.2608 17.6039 1.69965 17.6415 2.14168C17.679 2.5837 17.8907 2.9927 18.2298 3.2787C18.5689 3.56469 19.0078 3.70425 19.4498 3.66668H20.3331C22.9853 3.66668 25.5288 4.72025 27.4042 6.59561C29.2796 8.47097 30.3331 11.0145 30.3331 13.6667C30.3331 13.9667 30.3331 14.25 30.3331 14.55C30.2962 14.9897 30.4351 15.4261 30.7194 15.7635C31.0037 16.1009 31.4102 16.3118 31.8498 16.35H31.9831C32.4004 16.3517 32.803 16.1968 33.1116 15.916C33.4202 15.6352 33.6123 15.2489 33.6498 14.8333C33.6498 14.45 33.6498 14.05 33.6498 13.6667C33.6498 10.1333 32.2473 6.74448 29.7504 4.24447C27.2536 1.74447 23.8665 0.33776 20.3331 0.333344ZM23.6665 13.6667C23.6665 14.1087 23.8421 14.5326 24.1546 14.8452C24.4672 15.1577 24.8911 15.3333 25.3331 15.3333C25.7752 15.3333 26.1991 15.1577 26.5116 14.8452C26.8242 14.5326 26.9998 14.1087 26.9998 13.6667C26.9998 11.8986 26.2974 10.2029 25.0472 8.95263C23.7969 7.70239 22.1012 7.00001 20.3331 7.00001C19.8911 7.00001 19.4672 7.17561 19.1546 7.48817C18.8421 7.80073 18.6665 8.22465 18.6665 8.66668C18.6665 9.1087 18.8421 9.53263 19.1546 9.84519C19.4672 10.1577 19.8911 10.3333 20.3331 10.3333C21.2172 10.3333 22.065 10.6845 22.6902 11.3097C23.3153 11.9348 23.6665 12.7826 23.6665 13.6667Z" fill="#9D9FA2"/>
</svg>
