<svg width="36" height="42" viewBox="0 0 36 42" fill="none" xmlns="http://www.w3.org/2000/svg">
<path d="M23.1876 18.6249C23.8854 17.6644 24.3039 16.5297 24.397 15.3462C24.49 14.1627 24.254 12.9764 23.715 11.9187C23.176 10.8609 22.355 9.97281 21.3428 9.35253C20.3305 8.73225 19.1665 8.40396 17.9793 8.40396C16.7921 8.40396 15.6281 8.73225 14.6158 9.35253C13.6036 9.97281 12.7825 10.8609 12.2435 11.9187C11.7045 12.9764 11.4685 14.1627 11.5616 15.3462C11.6547 16.5297 12.0732 17.6644 12.771 18.6249C11.8859 19.189 11.0979 19.8925 10.4376 20.7083C10.2653 20.9312 10.1385 21.186 10.0646 21.4579C9.99068 21.7299 9.97106 22.0138 10.0069 22.2933C10.0426 22.5728 10.1331 22.8426 10.2732 23.0872C10.4132 23.3317 10.6001 23.5463 10.823 23.7187C11.046 23.891 11.3007 24.0178 11.5727 24.0917C11.8447 24.1656 12.1285 24.1852 12.4081 24.1495C12.6876 24.1137 12.9574 24.0232 13.2019 23.8831C13.4465 23.7431 13.6611 23.5562 13.8335 23.3333C14.3423 22.6865 14.9907 22.1632 15.7303 21.8025C16.4698 21.4417 17.2814 21.2528 18.1043 21.2499C18.9272 21.2528 19.7387 21.4417 20.4783 21.8025C21.2179 22.1632 21.8663 22.6865 22.3751 23.3333C22.5712 23.575 22.8189 23.7697 23.1002 23.9031C23.3814 24.0365 23.6889 24.1052 24.0001 24.1041C24.3907 24.1023 24.7729 23.9908 25.1031 23.7822C25.4333 23.5737 25.6982 23.2765 25.8676 22.9246C26.0371 22.5727 26.1042 22.1803 26.0613 21.7921C26.0184 21.4039 25.8673 21.0355 25.6251 20.7291C24.9351 19.8972 24.1114 19.1861 23.1876 18.6249ZM18.0001 17.1041C17.5546 17.1038 17.119 16.9725 16.7476 16.7264C16.3762 16.4804 16.0853 16.1305 15.9113 15.7204C15.7372 15.3103 15.6877 14.8581 15.7687 14.42C15.8498 13.9819 16.058 13.5774 16.3673 13.2567C16.6766 12.9361 17.0733 12.7135 17.5082 12.6167C17.9431 12.5199 18.3968 12.5531 18.8129 12.7123C19.229 12.8715 19.5891 13.1495 19.8484 13.5118C20.1077 13.8742 20.2546 14.3047 20.271 14.7499C20.2822 15.0551 20.2317 15.3594 20.1226 15.6446C20.0135 15.9298 19.848 16.19 19.636 16.4098C19.424 16.6296 19.1699 16.8043 18.8888 16.9236C18.6077 17.0429 18.3055 17.1043 18.0001 17.1041ZM35.6251 16.0624C35.3326 13.0185 34.2569 10.1022 32.5026 7.59747C30.7483 5.09276 28.3753 3.085 25.6147 1.76971C22.8541 0.454427 19.7999 -0.123563 16.7495 0.092027C13.6992 0.307617 10.7566 1.30944 8.20845 2.99994C6.01928 4.46378 4.18148 6.39431 2.82708 8.65283C1.47269 10.9114 0.635316 13.4418 0.375118 16.0624C0.119873 18.6659 0.447356 21.2935 1.33381 23.7547C2.22026 26.2158 3.64345 28.4488 5.50012 30.2916L16.5418 41.3541C16.7355 41.5494 16.9659 41.7044 17.2198 41.8101C17.4736 41.9159 17.7459 41.9704 18.021 41.9704C18.296 41.9704 18.5683 41.9159 18.8222 41.8101C19.076 41.7044 19.3064 41.5494 19.5001 41.3541L30.5001 30.2916C32.3568 28.4488 33.78 26.2158 34.6664 23.7547C35.5529 21.2935 35.8804 18.6659 35.6251 16.0624ZM27.5835 27.3541L18.0001 36.9374L8.41679 27.3541C7.00447 25.9417 5.92262 24.234 5.24901 22.3536C4.5754 20.4733 4.32675 18.467 4.52095 16.4791C4.71641 14.4606 5.35796 12.5107 6.39922 10.7704C7.44049 9.0302 8.85545 7.54308 10.5418 6.4166C12.7521 4.94834 15.3466 4.16513 18.0001 4.16513C20.6536 4.16513 23.2482 4.94834 25.4585 6.4166C27.1397 7.53872 28.5515 9.01927 29.5925 10.7519C30.6335 12.4845 31.2779 14.4262 31.4793 16.4374C31.6798 18.4321 31.4343 20.4463 30.7605 22.3344C30.0867 24.2225 29.0015 25.9371 27.5835 27.3541Z" fill="#9D9FA2"/>
</svg>
