<svg width="34" height="34" viewBox="0 0 34 34" fill="none" xmlns="http://www.w3.org/2000/svg">
<path d="M23.183 18.1834C23.3347 18.0248 23.4537 17.8379 23.533 17.6334C23.6997 17.2276 23.6997 16.7725 23.533 16.3667C23.4537 16.1621 23.3347 15.9752 23.183 15.8167L18.183 10.8167C17.8692 10.5028 17.4435 10.3265 16.9997 10.3265C16.5558 10.3265 16.1302 10.5028 15.8163 10.8167C15.5025 11.1305 15.3262 11.5562 15.3262 12C15.3262 12.4439 15.5025 12.8695 15.8163 13.1834L17.983 15.3334H11.9997C11.5577 15.3334 11.1337 15.5089 10.8212 15.8215C10.5086 16.1341 10.333 16.558 10.333 17C10.333 17.442 10.5086 17.866 10.8212 18.1785C11.1337 18.4911 11.5577 18.6667 11.9997 18.6667H17.983L15.8163 20.8167C15.6601 20.9716 15.5361 21.156 15.4515 21.3591C15.3669 21.5622 15.3234 21.78 15.3234 22C15.3234 22.22 15.3669 22.4379 15.4515 22.641C15.5361 22.8441 15.6601 23.0284 15.8163 23.1834C15.9713 23.3396 16.1556 23.4636 16.3587 23.5482C16.5618 23.6328 16.7797 23.6763 16.9997 23.6763C17.2197 23.6763 17.4375 23.6328 17.6406 23.5482C17.8437 23.4636 18.0281 23.3396 18.183 23.1834L23.183 18.1834ZM33.6663 17C33.6663 13.7037 32.6889 10.4813 30.8575 7.74051C29.0261 4.99969 26.4232 2.86349 23.3777 1.60203C20.3323 0.340565 16.9812 0.0105093 13.7482 0.653596C10.5152 1.29668 7.54544 2.88403 5.21457 5.2149C2.88369 7.54578 1.29635 10.5155 0.653261 13.7485C0.0101736 16.9815 0.340229 20.3326 1.60169 23.3781C2.86315 26.4235 4.99936 29.0265 7.74018 30.8578C10.481 32.6892 13.7033 33.6667 16.9997 33.6667C21.42 33.6667 25.6592 31.9107 28.7848 28.7851C31.9104 25.6595 33.6663 21.4203 33.6663 17ZM3.66635 17C3.66635 14.3629 4.44834 11.7851 5.91342 9.59241C7.37851 7.39976 9.46089 5.69079 11.8972 4.68162C14.3336 3.67246 17.0145 3.40841 19.6009 3.92288C22.1873 4.43735 24.5631 5.70723 26.4278 7.57193C28.2925 9.43663 29.5623 11.8124 30.0768 14.3988C30.5913 16.9852 30.3272 19.6661 29.3181 22.1025C28.3089 24.5388 26.5999 26.6212 24.4073 28.0863C22.2146 29.5514 19.6368 30.3333 16.9997 30.3333C13.4635 30.3333 10.0721 28.9286 7.57159 26.4281C5.07111 23.9276 3.66635 20.5362 3.66635 17Z" fill="#FFB801"/>
</svg>
