<svg width="21" height="17" viewBox="0 0 21 17" fill="none" xmlns="http://www.w3.org/2000/svg">
<path d="M13.455 8.16L8.555 5C8.40298 4.91224 8.23054 4.86603 8.055 4.86603C7.87946 4.86603 7.70702 4.91224 7.555 5C7.40674 5.08552 7.28291 5.20767 7.19536 5.35474C7.10782 5.50182 7.05949 5.6689 7.055 5.84V12.16C7.0563 12.3382 7.10519 12.5128 7.19661 12.6658C7.28803 12.8187 7.41867 12.9445 7.575 13.03C7.72043 13.1156 7.88623 13.1605 8.055 13.16C8.23214 13.1478 8.40369 13.0929 8.555 13L13.455 9.84C13.5953 9.74935 13.7107 9.62497 13.7906 9.47824C13.8706 9.3315 13.9124 9.16708 13.9124 9C13.9124 8.83292 13.8706 8.66851 13.7906 8.52177C13.7107 8.37504 13.5953 8.25066 13.455 8.16ZM9.055 10.32V7.68L11.055 9L9.055 10.32ZM17.435 1.51L15.885 1.31C12.046 0.839964 8.164 0.839964 4.325 1.31L2.775 1.51C2.02971 1.59111 1.3404 1.94387 0.838675 2.50093C0.336954 3.05799 0.0579739 3.78032 0.0550003 4.53V13.47C0.061357 14.2086 0.335506 14.9197 0.826546 15.4715C1.31759 16.0232 1.99215 16.378 2.725 16.47L4.275 16.66C6.19276 16.893 8.12315 17.0066 10.055 17C11.9873 17 13.9177 16.8797 15.835 16.64L17.385 16.45C18.1178 16.358 18.7924 16.0032 19.2835 15.4515C19.7745 14.8997 20.0486 14.1886 20.055 13.45V4.53C20.0535 3.78798 19.7815 3.07196 19.29 2.51604C18.7985 1.96013 18.1212 1.60245 17.385 1.51H17.435ZM18.105 13.51C18.1058 13.7619 18.0115 14.0049 17.8409 14.1903C17.6704 14.3757 17.4361 14.4899 17.185 14.51L15.635 14.7C11.9627 15.16 8.24732 15.16 4.575 14.7L3.025 14.51C2.77389 14.4899 2.53963 14.3757 2.36906 14.1903C2.1985 14.0049 2.10419 13.7619 2.105 13.51V4.53C2.11692 4.28195 2.21555 4.04596 2.38369 3.8632C2.55183 3.68044 2.7788 3.56252 3.025 3.53L4.525 3.3C8.19773 2.84665 11.9123 2.84665 15.585 3.3L17.135 3.49C17.3812 3.52252 17.6082 3.64044 17.7763 3.8232C17.9444 4.00596 18.0431 4.24195 18.055 4.49L18.105 13.51Z" fill="#ffb801"/>
</svg>
