<svg width="22" height="22" viewBox="0 0 22 22" fill="none" xmlns="http://www.w3.org/2000/svg">
<path d="M14.71 7.28999C14.617 7.19626 14.5064 7.12187 14.3845 7.0711C14.2627 7.02033 14.132 6.99419 14 6.99419C13.8679 6.99419 13.7372 7.02033 13.6154 7.0711C13.4935 7.12187 13.3829 7.19626 13.29 7.28999L11 9.58999L8.70996 7.28999C8.52165 7.10168 8.26626 6.9959 7.99996 6.9959C7.73366 6.9959 7.47826 7.10168 7.28996 7.28999C7.10165 7.47829 6.99587 7.73369 6.99587 7.99999C6.99587 8.26629 7.10165 8.52168 7.28996 8.70999L9.58996 11L7.28996 13.29C7.19623 13.383 7.12183 13.4936 7.07107 13.6154C7.0203 13.7373 6.99416 13.868 6.99416 14C6.99416 14.132 7.0203 14.2627 7.07107 14.3846C7.12183 14.5064 7.19623 14.617 7.28996 14.71C7.38292 14.8037 7.49352 14.8781 7.61538 14.9289C7.73724 14.9796 7.86795 15.0058 7.99996 15.0058C8.13197 15.0058 8.26267 14.9796 8.38453 14.9289C8.50639 14.8781 8.61699 14.8037 8.70996 14.71L11 12.41L13.29 14.71C13.3829 14.8037 13.4935 14.8781 13.6154 14.9289C13.7372 14.9796 13.8679 15.0058 14 15.0058C14.132 15.0058 14.2627 14.9796 14.3845 14.9289C14.5064 14.8781 14.617 14.8037 14.71 14.71C14.8037 14.617 14.8781 14.5064 14.9288 14.3846C14.9796 14.2627 15.0058 14.132 15.0058 14C15.0058 13.868 14.9796 13.7373 14.9288 13.6154C14.8781 13.4936 14.8037 13.383 14.71 13.29L12.41 11L14.71 8.70999C14.8037 8.61702 14.8781 8.50642 14.9288 8.38456C14.9796 8.26271 15.0058 8.132 15.0058 7.99999C15.0058 7.86798 14.9796 7.73727 14.9288 7.61541C14.8781 7.49355 14.8037 7.38295 14.71 7.28999ZM18.07 3.92999C17.1475 2.97489 16.044 2.21306 14.824 1.68897C13.604 1.16488 12.2918 0.889021 10.964 0.877483C9.63618 0.865945 8.31938 1.11896 7.09042 1.62177C5.86145 2.12458 4.74493 2.86711 3.80601 3.80604C2.86708 4.74497 2.12455 5.86148 1.62174 7.09045C1.11893 8.31941 0.865915 9.63621 0.877453 10.964C0.888991 12.2918 1.16485 13.604 1.68894 14.824C2.21303 16.0441 2.97486 17.1475 3.92996 18.07C4.85243 19.0251 5.95587 19.7869 7.17591 20.311C8.39595 20.8351 9.70815 21.111 11.0359 21.1225C12.3637 21.134 13.6805 20.881 14.9095 20.3782C16.1385 19.8754 17.255 19.1329 18.1939 18.1939C19.1328 17.255 19.8754 16.1385 20.3782 14.9095C20.881 13.6806 21.134 12.3638 21.1225 11.036C21.1109 9.70818 20.8351 8.39598 20.311 7.17594C19.7869 5.9559 19.0251 4.85246 18.07 3.92999ZM16.66 16.66C15.352 17.9694 13.6305 18.7848 11.7888 18.9673C9.94701 19.1498 8.09896 18.688 6.55948 17.6608C5.02 16.6335 3.88432 15.1042 3.34593 13.3335C2.80754 11.5627 2.89976 9.66013 3.60687 7.94977C4.31398 6.23941 5.59223 4.82714 7.22385 3.95355C8.85546 3.07996 10.7395 2.79912 12.555 3.15886C14.3704 3.5186 16.005 4.49668 17.1802 5.92645C18.3554 7.35622 18.9985 9.14923 19 11C19.0035 12.0513 18.7985 13.0928 18.3969 14.0644C17.9952 15.0359 17.4049 15.9181 16.66 16.66Z" fill="#9D9FA2"/>
</svg>
