<svg width="34" height="34" viewBox="0 0 34 34" fill="none" xmlns="http://www.w3.org/2000/svg">
<path d="M10.817 15.8166C10.6653 15.9752 10.5463 16.1621 10.467 16.3666C10.3003 16.7724 10.3003 17.2275 10.467 17.6333C10.5463 17.8379 10.6653 18.0248 10.817 18.1833L15.817 23.1833C16.1308 23.4972 16.5565 23.6735 17.0003 23.6735C17.4442 23.6735 17.8698 23.4972 18.1837 23.1833C18.4975 22.8695 18.6738 22.4438 18.6738 22C18.6738 21.5561 18.4975 21.1305 18.1837 20.8166L16.017 18.6666L22.0003 18.6666C22.4423 18.6666 22.8663 18.4911 23.1788 18.1785C23.4914 17.8659 23.667 17.442 23.667 17C23.667 16.558 23.4914 16.134 23.1788 15.8215C22.8663 15.5089 22.4423 15.3333 22.0003 15.3333L16.017 15.3333L18.1837 13.1833C18.3399 13.0284 18.4639 12.844 18.5485 12.6409C18.6331 12.4378 18.6767 12.22 18.6767 12C18.6767 11.78 18.6331 11.5621 18.5485 11.359C18.4639 11.1559 18.3399 10.9716 18.1837 10.8166C18.0287 10.6604 17.8444 10.5364 17.6413 10.4518C17.4382 10.3672 17.2203 10.3237 17.0003 10.3237C16.7803 10.3237 16.5625 10.3672 16.3594 10.4518C16.1563 10.5364 15.9719 10.6604 15.817 10.8166L10.817 15.8166ZM0.333654 17C0.333654 20.2963 1.31114 23.5187 3.14249 26.2595C4.97385 29.0003 7.57683 31.1365 10.6223 32.398C13.6677 33.6594 17.0188 33.9895 20.2518 33.3464C23.4848 32.7033 26.4546 31.116 28.7854 28.7851C31.1163 26.4542 32.7037 23.4845 33.3467 20.2515C33.9898 17.0185 33.6598 13.6674 32.3983 10.6219C31.1369 7.57649 29.0006 4.97351 26.2598 3.14216C23.519 1.3108 20.2967 0.333316 17.0003 0.333315C12.58 0.333315 8.34082 2.08926 5.21521 5.21487C2.0896 8.34047 0.333654 12.5797 0.333654 17ZM30.3337 17C30.3337 19.6371 29.5517 22.2149 28.0866 24.4076C26.6215 26.6002 24.5391 28.3092 22.1028 29.3184C19.6664 30.3275 16.9855 30.5916 14.3991 30.0771C11.8127 29.5626 9.43693 28.2928 7.57223 26.4281C5.70753 24.5634 4.43765 22.1876 3.92318 19.6012C3.40871 17.0148 3.67276 14.3339 4.68193 11.8975C5.6911 9.46119 7.40006 7.37881 9.59272 5.91372C11.7854 4.44864 14.3632 3.66665 17.0003 3.66665C20.5365 3.66665 23.9279 5.07141 26.4284 7.57189C28.9289 10.0724 30.3337 13.4638 30.3337 17Z" fill="#FFB801"/>
</svg>
