<svg width="68" height="68" viewBox="0 0 68 68" fill="none" xmlns="http://www.w3.org/2000/svg">
<path d="M63.4333 18.3999C60.7302 13.3481 56.7837 9.06886 51.9667 5.96656C47.6074 3.16216 42.6542 1.41304 37.5005 0.858167C32.3469 0.303295 27.1348 0.957966 22.2785 2.77016C17.4222 4.58236 13.0554 7.50214 9.52509 11.2975C5.99479 15.0929 3.39828 19.6593 1.94183 24.6339C0.485385 29.6086 0.209151 34.8543 1.13507 39.9543C2.061 45.0544 4.16356 49.8683 7.27572 54.0134C10.3879 58.1586 14.4238 61.5209 19.063 63.8331C23.7021 66.1453 28.8166 67.3438 34 67.3332H34.9667C40.6302 67.1661 46.1577 65.5581 51.027 62.661C55.8963 59.7639 59.9468 55.6735 62.796 50.7759C65.6451 45.8784 67.1988 40.3354 67.3103 34.6705C67.4218 29.0056 66.0875 23.4058 63.4333 18.3999ZM30.6667 60.4332C24.2605 59.5802 18.3821 56.4297 14.1245 51.5676C9.86694 46.7055 7.51995 40.4626 7.51995 33.9999C7.51995 27.5372 9.86694 21.2943 14.1245 16.4322C18.3821 11.5701 24.2605 8.41963 30.6667 7.56656V60.4332ZM37.3333 7.56656C40.2151 7.93519 43.018 8.7682 45.6333 10.0332L37.3333 24.3999V7.56656ZM37.3333 37.5666L51.2333 13.6666C53.2828 15.4264 55.0579 17.4824 56.5 19.7666L37.3333 52.9666V37.5666ZM41.1667 59.4999L59.8 27.3332C60.3635 29.5111 60.6546 31.7504 60.6667 33.9999C60.6625 39.8199 58.7545 45.4788 55.2337 50.113C51.7128 54.7473 46.7726 58.1024 41.1667 59.6666V59.4999Z" fill="black"/>
</svg>
