<svg width="52" height="68" viewBox="0 0 52 68" fill="none" xmlns="http://www.w3.org/2000/svg">
<path d="M27.8667 1.23343C27.3154 0.860848 26.6653 0.661743 26 0.661743C25.3347 0.661743 24.6845 0.860848 24.1333 1.23343C23.1333 1.9001 0.166656 17.9001 0.166656 41.5001C0.166656 48.3515 2.88837 54.9223 7.73307 59.767C12.5778 64.6117 19.1486 67.3334 26 67.3334C32.8514 67.3334 39.4222 64.6117 44.2669 59.767C49.1116 54.9223 51.8333 48.3515 51.8333 41.5001C51.8333 17.5001 28.8333 1.86677 27.8667 1.23343ZM26 60.6668C20.9194 60.6579 16.0494 58.6358 12.4568 55.0432C8.86431 51.4507 6.84214 46.5807 6.83332 41.5001C6.83332 24.8334 20.8667 12.2668 26 8.16677C31.1667 12.2001 45.1667 24.8334 45.1667 41.5001C45.1578 46.5807 43.1357 51.4507 39.5431 55.0432C35.9506 58.6358 31.0806 60.6579 26 60.6668Z" fill="black"/>
</svg>
