<svg width="60" height="74" viewBox="0 0 60 74" fill="none" xmlns="http://www.w3.org/2000/svg">
<path d="M50 0.333374H23.3333C20.6812 0.333374 18.1376 1.38694 16.2623 3.26231C14.3869 5.13767 13.3333 7.68121 13.3333 10.3334H10C7.34784 10.3334 4.8043 11.3869 2.92893 13.2623C1.05357 15.1377 0 17.6812 0 20.3334V30.3334C0 32.9855 1.05357 35.5291 2.92893 37.4044C4.8043 39.2798 7.34784 40.3334 10 40.3334H30C30.8841 40.3334 31.7319 40.6846 32.357 41.3097C32.9821 41.9348 33.3333 42.7826 33.3333 43.6667V47C31.5652 47 29.8695 47.7024 28.6193 48.9527C27.369 50.2029 26.6667 51.8986 26.6667 53.6667V67C26.6667 68.7681 27.369 70.4638 28.6193 71.7141C29.8695 72.9643 31.5652 73.6667 33.3333 73.6667H40C41.7681 73.6667 43.4638 72.9643 44.714 71.7141C45.9643 70.4638 46.6667 68.7681 46.6667 67V53.6667C46.6667 51.8986 45.9643 50.2029 44.714 48.9527C43.4638 47.7024 41.7681 47 40 47V43.6667C40 41.0145 38.9464 38.471 37.0711 36.5956C35.1957 34.7203 32.6522 33.6667 30 33.6667H10C9.11594 33.6667 8.2681 33.3155 7.64298 32.6904C7.01786 32.0653 6.66667 31.2174 6.66667 30.3334V20.3334C6.66667 19.4493 7.01786 18.6015 7.64298 17.9764C8.2681 17.3512 9.11594 17 10 17H13.3333C13.3333 19.6522 14.3869 22.1957 16.2623 24.0711C18.1376 25.9465 20.6812 27 23.3333 27H50C52.6522 27 55.1957 25.9465 57.0711 24.0711C58.9464 22.1957 60 19.6522 60 17V10.3334C60 7.68121 58.9464 5.13767 57.0711 3.26231C55.1957 1.38694 52.6522 0.333374 50 0.333374ZM40 53.6667V67H33.3333V53.6667H40ZM53.3333 17C53.3333 17.8841 52.9821 18.7319 52.357 19.3571C51.7319 19.9822 50.8841 20.3334 50 20.3334H23.3333C22.4493 20.3334 21.6014 19.9822 20.9763 19.3571C20.3512 18.7319 20 17.8841 20 17V10.3334C20 9.44932 20.3512 8.60147 20.9763 7.97635C21.6014 7.35123 22.4493 7.00004 23.3333 7.00004H50C50.8841 7.00004 51.7319 7.35123 52.357 7.97635C52.9821 8.60147 53.3333 9.44932 53.3333 10.3334V17Z" fill="black"/>
</svg>
