<svg width="21" height="20" viewBox="0 0 21 20" fill="none" xmlns="http://www.w3.org/2000/svg">
<path d="M10.055 0C7.33654 0 6.99774 0.0131266 5.93386 0.0581323C4.8656 0.110639 4.14301 0.276285 3.50543 0.523815C2.83814 0.775735 2.23381 1.17016 1.73459 1.67958C1.22374 2.17765 0.829095 2.78231 0.578816 3.45043C0.331285 4.08801 0.165639 4.8106 0.113133 5.87886C0.0650016 6.94337 0.0550003 7.28154 0.0550003 10C0.0550003 12.7185 0.068127 13.0573 0.113133 14.1211C0.165639 15.1863 0.331285 15.912 0.578816 16.5496C0.830735 17.2169 1.22516 17.8212 1.73459 18.3204C2.23265 18.8313 2.83731 19.2259 3.50543 19.4762C4.14301 19.7206 4.86873 19.8894 5.93386 19.9419C6.99837 19.99 7.33654 20 10.055 20C12.7735 20 13.1123 19.9869 14.1761 19.9419C15.2413 19.8894 15.967 19.72 16.6046 19.4762C17.2719 19.2243 17.8762 18.8298 18.3754 18.3204C18.8869 17.8229 19.2817 17.2181 19.5312 16.5496C19.7756 15.912 19.9444 15.1863 19.9969 14.1211C20.045 13.0566 20.055 12.7185 20.055 10C20.055 7.28154 20.0419 6.94274 19.9969 5.87886C19.9444 4.81373 19.775 4.08426 19.5312 3.45043C19.2793 2.78314 18.8848 2.17881 18.3754 1.67958C17.8779 1.16808 17.2731 0.773334 16.6046 0.523815C15.967 0.276285 15.2413 0.110639 14.1761 0.0581323C13.1116 0.0100013 12.7735 0 10.055 0ZM10.055 1.80023C12.7247 1.80023 13.0435 1.81335 14.0986 1.85836C15.0719 1.90399 15.6019 2.06651 15.9539 2.20403C16.3889 2.36462 16.7827 2.62023 17.1065 2.95224C17.438 3.27468 17.6926 3.66755 17.8516 4.10176C17.9891 4.45368 18.1516 4.98375 18.1973 5.95699C18.2423 7.01213 18.2554 7.33154 18.2554 10.0006C18.2554 12.6697 18.2423 12.9891 18.1935 14.0443C18.141 15.0175 17.9785 15.5476 17.8416 15.8995C17.6522 16.3689 17.4409 16.6971 17.0921 17.0521C16.7672 17.3821 16.3737 17.6364 15.9395 17.7972C15.5919 17.9347 15.0544 18.0973 14.0774 18.1429C13.0166 18.1879 12.7041 18.201 10.0275 18.201C7.35091 18.201 7.039 18.1879 5.97699 18.1391C5.00374 18.0866 4.4668 17.9241 4.11488 17.7872C3.63982 17.5978 3.31416 17.3865 2.96536 17.0378C2.61345 16.6858 2.38967 16.3508 2.21715 15.8851C2.07713 15.5376 1.91711 15 1.86523 14.023C1.8296 12.9747 1.81272 12.6497 1.81272 9.98562C1.81272 7.32279 1.8296 6.99713 1.86523 5.93574C1.91711 4.95875 2.07713 4.42243 2.21715 4.07363C2.38967 3.59795 2.61407 3.27291 2.96536 2.92099C3.31353 2.57282 3.63982 2.34779 4.11488 2.17152C4.4668 2.03463 4.99062 1.87211 5.96761 1.82335C7.02837 1.78522 7.34091 1.77147 10.0137 1.77147L10.055 1.80023ZM10.055 4.86748C9.38076 4.86724 8.71307 4.99986 8.0901 5.25777C7.46713 5.51567 6.90109 5.89382 6.42433 6.37058C5.94757 6.84734 5.56942 7.41338 5.31152 8.03635C5.05361 8.65932 4.92099 9.32701 4.92123 10.0013C4.92099 10.6755 5.05361 11.3432 5.31152 11.9661C5.56942 12.5891 5.94757 13.1552 6.42433 13.6319C6.90109 14.1087 7.46713 14.4868 8.0901 14.7447C8.71307 15.0026 9.38076 15.1353 10.055 15.135C10.7292 15.1353 11.3969 15.0026 12.0199 14.7447C12.6429 14.4868 13.2089 14.1087 13.6857 13.6319C14.1624 13.1552 14.5406 12.5891 14.7985 11.9661C15.0564 11.3432 15.189 10.6755 15.1888 10.0013C15.189 9.32701 15.0564 8.65932 14.7985 8.03635C14.5406 7.41338 14.1624 6.84734 13.6857 6.37058C13.2089 5.89382 12.6429 5.51567 12.0199 5.25777C11.3969 4.99986 10.7292 4.86724 10.055 4.86748ZM10.055 13.3348C8.21227 13.3348 6.72146 11.844 6.72146 10.0013C6.72146 8.15852 8.21227 6.66771 10.055 6.66771C11.8977 6.66771 13.3885 8.15852 13.3885 10.0013C13.3885 11.844 11.8977 13.3348 10.055 13.3348ZM16.5958 4.66246C16.5955 4.98104 16.4687 5.28646 16.2433 5.51161C16.0179 5.73676 15.7124 5.86323 15.3938 5.86323C15.2363 5.86323 15.0803 5.83221 14.9348 5.77192C14.7892 5.71164 14.657 5.62329 14.5456 5.5119C14.4342 5.40051 14.3459 5.26828 14.2856 5.12275C14.2253 4.97721 14.1943 4.82123 14.1943 4.66371C14.1943 4.50618 14.2253 4.3502 14.2856 4.20467C14.3459 4.05914 14.4342 3.9269 14.5456 3.81552C14.657 3.70413 14.7892 3.61577 14.9348 3.55549C15.0803 3.49521 15.2363 3.46418 15.3938 3.46418C16.0545 3.46418 16.5958 4.00175 16.5958 4.66246Z" fill="#ffb801"/>
</svg>
