<svg width="68" height="70" viewBox="0 0 68 70" fill="none" xmlns="http://www.w3.org/2000/svg">
<path d="M60.6667 27.2334V26.6668C60.6869 20.9966 58.8878 15.4694 55.5339 10.8975C52.1799 6.32556 47.448 2.94998 42.0333 1.26678H41.8333C39.0368 0.41422 36.123 0.00921949 33.2 0.0667764C26.2394 0.44875 19.687 3.47261 14.88 8.52119C10.073 13.5698 7.3738 20.2625 7.33333 27.2334C5.38003 27.9206 3.6882 29.1971 2.49138 30.8868C1.29457 32.5766 0.651794 34.5961 0.651794 36.6668C0.651794 38.7374 1.29457 40.757 2.49138 42.4467C3.6882 44.1364 5.38003 45.413 7.33333 46.1001C8.01988 52.6827 11.1297 58.7748 16.0582 63.192C20.9868 67.6092 27.3818 70.0358 34 70.0001H34.7667C41.1665 69.6903 47.2497 67.123 51.9362 62.7537C56.6228 58.3844 59.6097 52.4959 60.3667 46.1334C62.3429 45.4852 64.0679 44.2368 65.3014 42.5622C66.5349 40.8875 67.2155 38.8699 67.2485 36.7903C67.2816 34.7107 66.6653 32.6725 65.4856 30.9595C64.3058 29.2466 62.6214 27.9441 60.6667 27.2334ZM34.6 63.3334C29.7747 63.473 25.0616 61.8626 21.3307 58.7994C17.5997 55.7362 15.1025 51.427 14.3 46.6668H53.5333C52.7198 51.1731 50.4066 55.272 46.9694 58.2977C43.5323 61.3233 39.1731 63.098 34.6 63.3334ZM57.3333 40.0001H10.6667C9.78261 40.0001 8.93476 39.6489 8.30964 39.0238C7.68452 38.3987 7.33333 37.5508 7.33333 36.6668C7.33333 35.7827 7.68452 34.9349 8.30964 34.3098C8.93476 33.6846 9.78261 33.3334 10.6667 33.3334H17.3333C18.2174 33.3334 19.0652 32.9823 19.6903 32.3571C20.3155 31.732 20.6667 30.8842 20.6667 30.0001C20.6667 29.1161 20.3155 28.2682 19.6903 27.6431C19.0652 27.018 18.2174 26.6668 17.3333 26.6668H14C14.1492 23.2088 15.1375 19.8391 16.8797 16.8483C18.6219 13.8576 21.0656 11.3356 24 9.50011V20.0001C24 20.8842 24.3512 21.732 24.9763 22.3571C25.6014 22.9823 26.4493 23.3334 27.3333 23.3334C28.2174 23.3334 29.0652 22.9823 29.6903 22.3571C30.3155 21.732 30.6667 20.8842 30.6667 20.0001V6.96678C31.5714 6.81562 32.484 6.71546 33.4 6.66678H34C35.1171 6.68251 36.2314 6.78279 37.3333 6.96678V20.0001C37.3333 20.8842 37.6845 21.732 38.3096 22.3571C38.9348 22.9823 39.7826 23.3334 40.6667 23.3334C41.5507 23.3334 42.3986 22.9823 43.0237 22.3571C43.6488 21.732 44 20.8842 44 20.0001V9.40011C45.414 10.2189 46.7331 11.1914 47.9333 12.3001C49.8552 14.1664 51.3825 16.3998 52.4246 18.8678C53.4668 21.3357 54.0025 23.9878 54 26.6668H50.6667C49.7826 26.6668 48.9348 27.018 48.3096 27.6431C47.6845 28.2682 47.3333 29.1161 47.3333 30.0001C47.3333 30.8842 47.6845 31.732 48.3096 32.3571C48.9348 32.9823 49.7826 33.3334 50.6667 33.3334H57.3333C58.2174 33.3334 59.0652 33.6846 59.6903 34.3098C60.3155 34.9349 60.6667 35.7827 60.6667 36.6668C60.6667 37.5508 60.3155 38.3987 59.6903 39.0238C59.0652 39.6489 58.2174 40.0001 57.3333 40.0001Z" fill="black"/>
</svg>
