<svg width="60" height="75" viewBox="0 0 60 75" fill="none" xmlns="http://www.w3.org/2000/svg">
<path d="M18.2259 24.9819L18.2184 24.988L18.2113 24.9949L18.2259 24.9819ZM51.4063 24.3601C51.1744 24.1366 50.917 23.941 50.6396 23.7774C50.2469 23.5463 49.8109 23.3982 49.3587 23.3422C48.9065 23.2863 48.4476 23.3237 48.0104 23.4521C47.5732 23.5806 47.1669 23.7973 46.8168 24.089C46.4667 24.3807 46.1802 24.7411 45.9749 25.1479C44.8267 27.4102 43.243 29.4235 41.3149 31.0723C41.6097 29.411 41.7584 27.7271 41.7592 26.0398C41.7654 20.9068 40.4113 15.8638 37.8348 11.4243C35.2582 6.98483 31.5512 3.3074 27.0913 0.76644C26.6 0.487931 26.0459 0.338806 25.4812 0.333058C24.9165 0.327311 24.3596 0.465128 23.8627 0.73358C23.3658 1.00203 22.9453 1.39231 22.6406 1.86781C22.3358 2.3433 22.1569 2.88842 22.1206 3.45201C21.934 6.61259 21.1078 9.7024 19.6919 12.5342C18.276 15.3661 16.2999 17.881 13.8833 19.9265L13.1151 20.5515C10.5881 22.2518 8.35141 24.3479 6.49077 26.7592C3.59848 30.4029 1.59491 34.6703 0.638952 39.2231C-0.31701 43.7759 -0.199071 48.4888 0.983414 52.9881C2.1659 57.4874 4.38041 61.6493 7.45132 65.1437C10.5222 68.6382 14.3651 71.3691 18.6751 73.1199C19.1812 73.3267 19.7304 73.4058 20.2742 73.3501C20.818 73.2945 21.3398 73.1059 21.7936 72.801C22.2473 72.496 22.619 72.0841 22.8759 71.6016C23.1328 71.119 23.267 70.5806 23.2667 70.034C23.2643 69.6804 23.2083 69.3291 23.1007 68.9923C22.3549 66.189 22.1402 63.271 22.4675 60.3888C25.6216 66.3378 30.6846 71.0534 36.8425 73.7774C37.5941 74.1137 38.4439 74.1589 39.227 73.9044C44.0922 72.3341 48.475 69.5458 51.9591 65.8046C55.4432 62.0633 57.9128 57.4933 59.1332 52.5287C60.3536 47.5642 60.2843 42.3701 58.9319 37.4398C57.5795 32.5096 54.9889 28.0071 51.4063 24.3601ZM38.3903 67.1303C35.4847 65.6577 32.9215 63.5901 30.8675 61.0619C28.8134 58.5336 27.3145 55.6014 26.4681 52.4558C26.2096 51.3967 26.0097 50.3241 25.8691 49.2429C25.7739 48.5544 25.4659 47.9129 24.9882 47.4081C24.5105 46.9032 23.887 46.5602 23.2048 46.4272C22.9946 46.3857 22.7809 46.365 22.5667 46.3653C21.9808 46.3651 21.4052 46.5194 20.898 46.8126C20.3908 47.1058 19.9699 47.5276 19.6777 48.0353C16.9119 52.8057 15.521 58.2488 15.6591 63.7612C13.2266 61.8699 11.1936 59.5146 9.67802 56.8319C8.16244 54.1491 7.1944 51.1922 6.83 48.1325C6.4656 45.0729 6.71208 41.9714 7.55517 39.0077C8.39826 36.044 9.82118 33.2771 11.7415 30.8674C13.1995 28.9735 14.9584 27.3317 16.9481 26.0074C17.0343 25.9518 17.1169 25.8909 17.1955 25.8251C17.1955 25.8251 18.1845 25.0068 18.2183 24.9881C22.9673 20.9713 26.345 15.5731 27.8808 9.54577C31.5127 12.9032 33.9344 17.3659 34.7699 22.2408C35.6055 27.1157 34.8081 32.1301 32.5015 36.5054C32.1968 37.0892 32.0718 37.7502 32.1423 38.405C32.2128 39.0598 32.4756 39.6791 32.8976 40.1847C33.3196 40.6903 33.8819 41.0596 34.5136 41.246C35.1452 41.4324 35.8179 41.4275 36.4468 41.2321C41.5528 39.6315 46.0458 36.5051 49.3212 32.2737C51.2897 35.1814 52.5767 38.4958 53.0862 41.9699C53.5957 45.4441 53.3147 48.9885 52.264 52.3389C51.2133 55.6893 49.42 58.7595 47.0179 61.3205C44.6157 63.8816 41.6666 65.8675 38.3902 67.1304L38.3903 67.1303Z" fill="black"/>
</svg>
